<svg width="44" height="40" viewBox="0 0 44 40" fill="none" xmlns="http://www.w3.org/2000/svg">
<g clip-path="url(#clip0_123_2695)">
<path d="M18.9999 13.5C18.9999 12.67 19.6699 12 20.4999 12C21.3299 12 21.9999 12.67 21.9999 13.5C21.9999 14.33 21.3299 15 20.4999 15C19.6699 15 18.9999 14.33 18.9999 13.5ZM33.9999 13V19C33.9999 21.76 31.7599 24 28.9999 24H19.9999C17.2399 24 14.9999 21.76 14.9999 19V13C14.9999 10.24 17.2399 8 19.9999 8H28.9999C31.7599 8 33.9999 10.24 33.9999 13ZM16.9999 19C16.9999 19.77 17.2899 20.47 17.7699 21.01L23.0099 15.77C23.9899 14.79 25.6999 14.79 26.6799 15.77L27.7199 16.81C27.9499 17.04 28.3399 17.04 28.5699 16.81L31.9999 13.38V13C31.9999 11.35 30.6499 10 28.9999 10H19.9999C18.3499 10 16.9999 11.35 16.9999 13V19ZM31.9999 19V16.21L29.9799 18.23C28.9999 19.21 27.2899 19.21 26.3099 18.23L25.2699 17.19C25.0399 16.96 24.6599 16.96 24.4199 17.19L19.6299 21.98C19.7499 22 19.8699 22 19.9999 22H28.9999C30.6499 22 31.9999 20.65 31.9999 19ZM28.0899 26.04C27.5599 25.89 27.0099 26.21 26.8599 26.74L26.5699 27.8C26.3599 28.57 25.8599 29.22 25.1599 29.61C24.4599 30.01 23.6499 30.11 22.8799 29.9L14.1999 27.52C12.5999 27.08 11.6599 25.43 12.0999 23.83L13.0599 20.27C13.1999 19.74 12.8899 19.19 12.3599 19.04C11.8299 18.9 11.2799 19.21 11.1299 19.74L10.1799 23.29C9.44991 25.95 11.0199 28.71 13.6799 29.44L22.3599 31.82C22.7999 31.94 23.2499 32 23.6899 32C24.5499 32 25.3899 31.78 26.1599 31.34C27.3199 30.68 28.1499 29.61 28.5099 28.32L28.7999 27.26C28.9499 26.73 28.6299 26.18 28.0999 26.03L28.0899 26.04Z" fill="#B2B2B2"/>
</g>
<defs>
<clipPath id="clip0_123_2695">
<rect width="24" height="24" fill="white" transform="translate(10 8)"/>
</clipPath>
</defs>
</svg>
