<svg width="44" height="40" viewBox="0 0 44 40" fill="none" xmlns="http://www.w3.org/2000/svg">
<g clip-path="url(#clip0_123_2730)">
<path d="M33.121 17.0691L25.536 9.48311C24.5973 8.5471 23.3257 8.02148 22 8.02148C20.6743 8.02148 19.4028 8.5471 18.464 9.48311L10.879 17.0691C10.5994 17.3469 10.3778 17.6774 10.2269 18.0415C10.076 18.4056 9.99889 18.796 10 19.1901V29.0071C10 29.8028 10.3161 30.5658 10.8787 31.1284C11.4413 31.691 12.2044 32.0071 13 32.0071H31C31.7957 32.0071 32.5587 31.691 33.1213 31.1284C33.6839 30.5658 34 29.8028 34 29.0071V19.1901C34.0011 18.796 33.924 18.4056 33.7731 18.0415C33.6222 17.6774 33.4006 17.3469 33.121 17.0691ZM25 30.0071H19V26.0731C19 25.2775 19.3161 24.5144 19.8787 23.9518C20.4413 23.3892 21.2044 23.0731 22 23.0731C22.7957 23.0731 23.5587 23.3892 24.1213 23.9518C24.6839 24.5144 25 25.2775 25 26.0731V30.0071ZM32 29.0071C32 29.2723 31.8947 29.5267 31.7071 29.7142C31.5196 29.9018 31.2652 30.0071 31 30.0071H27V26.0731C27 24.747 26.4732 23.4753 25.5355 22.5376C24.5979 21.5999 23.3261 21.0731 22 21.0731C20.6739 21.0731 19.4022 21.5999 18.4645 22.5376C17.5268 23.4753 17 24.747 17 26.0731V30.0071H13C12.7348 30.0071 12.4804 29.9018 12.2929 29.7142C12.1054 29.5267 12 29.2723 12 29.0071V19.1901C12.0009 18.9251 12.1062 18.6711 12.293 18.4831L19.878 10.9001C20.4417 10.339 21.2047 10.0241 22 10.0241C22.7953 10.0241 23.5583 10.339 24.122 10.9001L31.707 18.4861C31.8931 18.6734 31.9983 18.9261 32 19.1901V29.0071Z" fill="#808080" fill-opacity="0.6"/>
</g>
<defs>
<clipPath id="clip0_123_2730">
<rect width="24" height="24" fill="white" transform="translate(10 8)"/>
</clipPath>
</defs>
</svg>
