<svg width="44" height="40" viewBox="0 0 44 40" fill="none" xmlns="http://www.w3.org/2000/svg">
<path d="M21 20C21.2652 20 21.5196 20.1054 21.7071 20.2929C21.8946 20.4804 22 20.7348 22 21C22 21.2652 21.8946 21.5196 21.7071 21.7071C21.5196 21.8946 21.2652 22 21 22H18C17.7348 22 17.4804 21.8946 17.2929 21.7071C17.1054 21.5196 17 21.2652 17 21C17 20.7348 17.1054 20.4804 17.2929 20.2929C17.4804 20.1054 17.7348 20 18 20H21ZM27 17C27 16.7348 26.8946 16.4804 26.7071 16.2929C26.5196 16.1054 26.2652 16 26 16H18C17.7348 16 17.4804 16.1054 17.2929 16.2929C17.1054 16.4804 17 16.7348 17 17C17 17.2652 17.1054 17.5196 17.2929 17.7071C17.4804 17.8946 17.7348 18 18 18H26C26.2652 18 26.5196 17.8946 26.7071 17.7071C26.8946 17.5196 27 17.2652 27 17ZM18 14H26C26.2652 14 26.5196 13.8946 26.7071 13.7071C26.8946 13.5196 27 13.2652 27 13C27 12.7348 26.8946 12.4804 26.7071 12.2929C26.5196 12.1054 26.2652 12 26 12H18C17.7348 12 17.4804 12.1054 17.2929 12.2929C17.1054 12.4804 17 12.7348 17 13C17 13.2652 17.1054 13.5196 17.2929 13.7071C17.4804 13.8946 17.7348 14 18 14ZM30 27.444V31.277C30.0001 31.4197 29.9578 31.5591 29.8786 31.6777C29.7994 31.7964 29.6868 31.8888 29.555 31.9434C29.4232 31.998 29.2781 32.0123 29.1382 31.9845C28.9983 31.9566 28.8698 31.8879 28.769 31.787L28 31.019L27.231 31.787C27.1302 31.8879 27.0017 31.9566 26.8618 31.9845C26.7219 32.0123 26.5768 31.998 26.445 31.9434C26.3132 31.8888 26.2006 31.7964 26.1214 31.6777C26.0422 31.5591 25.9999 31.4197 26 31.277V27.444C25.2373 27.0058 24.641 26.3277 24.3038 25.5154C23.9666 24.703 23.9076 23.8019 24.1358 22.9525C24.364 22.103 24.8667 21.3529 25.5656 20.8189C26.2646 20.2849 27.1204 19.997 28 20C28.338 20.0042 28.6741 20.0519 29 20.142V13C29 12.2044 28.6839 11.4413 28.1213 10.8787C27.5587 10.3161 26.7956 10 26 10H18C17.2044 10 16.4413 10.3161 15.8787 10.8787C15.3161 11.4413 15 12.2044 15 13V25C15 25.7956 15.3161 26.5587 15.8787 27.1213C16.4413 27.6839 17.2044 28 18 28H23C23.2652 28 23.5196 28.1054 23.7071 28.2929C23.8946 28.4804 24 28.7348 24 29C24 29.2652 23.8946 29.5196 23.7071 29.7071C23.5196 29.8946 23.2652 30 23 30H18C16.6744 29.9984 15.4036 29.4711 14.4662 28.5338C13.5289 27.5964 13.0016 26.3256 13 25V13C13.0016 11.6744 13.5289 10.4036 14.4662 9.46622C15.4036 8.52888 16.6744 8.00159 18 8H26C27.3256 8.00159 28.5964 8.52888 29.5338 9.46622C30.4711 10.4036 30.9984 11.6744 31 13V21.382C31.3917 21.8219 31.6801 22.3438 31.844 22.9096C32.0079 23.4753 32.0433 24.0706 31.9474 24.6518C31.8515 25.2329 31.6269 25.7853 31.2899 26.2684C30.953 26.7516 30.5122 27.1532 30 27.444ZM30 24C30 23.6044 29.8827 23.2178 29.6629 22.8889C29.4432 22.56 29.1308 22.3036 28.7654 22.1522C28.3999 22.0009 27.9978 21.9613 27.6098 22.0384C27.2219 22.1156 26.8655 22.3061 26.5858 22.5858C26.3061 22.8655 26.1156 23.2219 26.0384 23.6098C25.9613 23.9978 26.0009 24.3999 26.1522 24.7654C26.3036 25.1308 26.56 25.4432 26.8889 25.6629C27.2178 25.8827 27.6044 26 28 26C28.5304 26 29.0391 25.7893 29.4142 25.4142C29.7893 25.0391 30 24.5304 30 24Z" fill="#808080" fill-opacity="0.6"/>
</svg>
