<svg width="44" height="40" viewBox="0 0 44 40" fill="none" xmlns="http://www.w3.org/2000/svg">
<g clip-path="url(#clip0_123_2761)">
<path d="M14.7811 18.2822L13.4721 17.3702L12.1671 18.2822C11.6691 18.6562 10.9361 18.1152 11.1451 17.5292L11.6101 16.0732L10.3911 15.2242C9.8541 14.8752 10.1371 13.9632 10.7791 13.9842H12.3741L12.7451 12.5632C12.9131 11.8252 14.0391 11.8262 14.2071 12.5632L14.5781 13.9842H16.1631C16.8031 13.9632 17.0851 14.8692 16.5501 15.2182L15.3291 16.0712L15.8051 17.5182C16.0211 18.1072 15.2811 18.6562 14.7801 18.2812L14.7811 18.2822ZM33.9801 14.5072C33.9111 14.2022 33.6391 13.9852 33.3261 13.9852H31.7411L31.3701 12.5642C31.2021 11.8262 30.0761 11.8262 29.9081 12.5642L29.5371 13.9852H27.9421C27.3001 13.9642 27.0181 14.8762 27.5541 15.2252L28.7731 16.0742L28.3081 17.5302C28.0981 18.1172 28.8321 18.6572 29.3301 18.2832L30.6351 17.3712L31.9441 18.2832C32.4461 18.6572 33.1851 18.1082 32.9691 17.5202L32.4931 16.0732L33.7141 15.2202C33.9421 15.0612 34.0481 14.7772 33.9801 14.5072ZM18.9201 11.2252L20.1391 12.0742L19.6741 13.5302C19.4651 14.1172 20.1981 14.6572 20.6961 14.2832L22.0011 13.3712L23.3101 14.2832C23.8121 14.6572 24.5511 14.1082 24.3351 13.5202L23.8591 12.0732L25.0801 11.2202C25.6151 10.8712 25.3331 9.96522 24.6931 9.98622H23.1081L22.7371 8.56522C22.5691 7.82722 21.4431 7.82722 21.2751 8.56522L20.9041 9.98622H19.3091C18.6671 9.96522 18.3851 10.8772 18.9211 11.2262L18.9201 11.2252ZM22.0001 25.0002C18.7931 25.0002 15.9401 27.0882 15.0611 30.0772C14.8271 30.8722 15.2821 31.7052 16.0771 31.9392C16.8711 32.1712 17.7051 31.7182 17.9391 30.9222C18.4451 29.2012 20.1151 27.9992 22.0001 27.9992C23.8851 27.9992 25.5551 29.2012 26.0611 30.9222C26.2531 31.5762 26.8511 31.9992 27.4991 31.9992C27.6391 31.9992 27.7811 31.9792 27.9221 31.9382C28.7171 31.7042 29.1721 30.8712 28.9381 30.0762C28.0591 27.0872 25.2061 24.9992 21.9991 24.9992L22.0001 25.0002ZM22.0001 24.0002C24.2091 24.0002 26.0001 22.2092 26.0001 20.0002C26.0001 17.7912 24.2091 16.0002 22.0001 16.0002C19.7911 16.0002 18.0001 17.7912 18.0001 20.0002C18.0001 22.2092 19.7911 24.0002 22.0001 24.0002Z" fill="#808080" fill-opacity="0.6"/>
</g>
<defs>
<clipPath id="clip0_123_2761">
<rect width="24" height="24" fill="white" transform="translate(10 8)"/>
</clipPath>
</defs>
</svg>
