<svg width="44" height="40" viewBox="0 0 44 40" fill="none" xmlns="http://www.w3.org/2000/svg">
<g clip-path="url(#clip0_123_2690)">
<path d="M30.9994 25.001H29.9994V21.0011C29.9994 20.4491 29.5524 20.0012 28.9994 20.0012C28.4464 20.0012 27.9995 20.4491 27.9995 21.0011V25.001H22.9996C21.3457 25.001 19.9997 26.347 19.9997 28.0009V28.5009C19.9997 29.3279 19.3267 30.0008 18.4997 30.0008C17.6728 30.0008 16.9998 29.3279 16.9998 28.5009V11.5014C16.9998 10.9624 16.8668 10.4574 16.6488 10.0015H21.9996C22.5526 10.0015 22.9996 9.55347 22.9996 9.00149C22.9996 8.4495 22.5526 8.00152 21.9996 8.00152H13.4999C11.57 8.00152 10 9.57147 10 11.5014V12.0014C10 13.6553 11.346 15.0013 12.9999 15.0013H14.9998V28.5009C14.9998 30.4298 16.5688 31.9998 18.4977 32.0008H30.4994C32.4293 32.0008 33.9993 30.4308 33.9993 28.5009V28.0009C33.9993 26.347 32.6533 25.001 30.9994 25.001ZM14.9998 13.0014H12.9999C12.4479 13.0014 11.9999 12.5524 11.9999 12.0014V11.5014C11.9999 10.6744 12.6729 10.0015 13.4999 10.0015C14.3269 10.0015 14.9998 10.6744 14.9998 11.5014V13.0014ZM31.9993 28.5009C31.9993 29.3279 31.3263 30.0008 30.4994 30.0008H21.6616C21.8786 29.5459 21.9996 29.0379 21.9996 28.5009V28.0009C21.9996 27.4499 22.4476 27.0009 22.9996 27.0009H30.9994C31.5513 27.0009 31.9993 27.4499 31.9993 28.0009V28.5009ZM19.9137 20.7951C19.7447 21.4021 20.2067 22.0011 20.8367 22.0011C21.2657 22.0011 21.6416 21.7151 21.7546 21.3011C21.8986 20.7761 22.0656 20.2501 22.2666 19.7252C25.0105 19.3362 27.2765 18.4062 29.1724 16.8742C31.1684 15.2613 33.0503 12.8154 33.8543 10.7884C34.1223 10.1135 34.0163 9.36747 33.5723 8.79149C33.1293 8.21751 32.4293 7.92752 31.7183 8.01552C30.7234 8.13751 27.2805 8.6905 24.7725 10.7164C21.9686 12.9804 20.9567 16.8462 20.6387 18.5012C20.3907 19.1302 20.0837 20.1811 19.9127 20.7941L19.9137 20.7951ZM26.0295 12.2734C27.6955 10.9294 30.1854 10.2184 31.9963 10.0535C31.4423 11.4494 29.9294 13.6943 27.9175 15.3203C26.9385 16.1103 25.8265 16.7053 24.5766 17.1332C25.6785 15.9133 26.9685 14.4813 27.9405 13.3844C28.1094 13.1934 27.8845 12.9094 27.6615 13.0324C26.0445 13.9203 24.6646 14.9233 23.5036 15.8823C24.0406 14.5953 24.8385 13.2354 26.0295 12.2734Z" fill="#808080" fill-opacity="0.6"/>
</g>
<defs>
<clipPath id="clip0_123_2690">
<rect width="24" height="24.0008" fill="white" transform="translate(10 8)"/>
</clipPath>
</defs>
</svg>
