<svg width="44" height="40" viewBox="0 0 44 40" fill="none" xmlns="http://www.w3.org/2000/svg">
<g clip-path="url(#clip0_123_2751)">
<path d="M22.01 15.77C23.02 14.76 24.67 14.75 25.69 15.77L26.73 16.81C26.96 17.04 27.35 17.04 27.58 16.81L33.53 10.86C32.73 9.17 31 8 29.01 8H20C17.24 8 15 10.24 15 13V19C15 20.07 15.34 21.06 15.91 21.87L22.01 15.77ZM19.5 11C20.33 11 21 11.67 21 12.5C21 13.33 20.33 14 19.5 14C18.67 14 18 13.33 18 12.5C18 11.67 18.67 11 19.5 11ZM22.33 31.82L13.66 29.41C11 28.67 9.44 25.91 10.18 23.25L11.79 17.47C12.02 16.65 12.44 15.93 13 15.35V19.01C13 22.88 16.13 26.01 20 26.01H29.14L28.49 28.35C27.75 31.01 24.99 32.57 22.33 31.83V31.82ZM34 13.21V19C34 21.76 31.76 24 29 24H20C19.03 24 18.13 23.72 17.36 23.25L23.42 17.19C23.65 16.96 24.04 16.96 24.27 17.19L25.31 18.23C26.29 19.21 28 19.21 28.98 18.23L34 13.21Z" fill="#EB235C"/>
</g>
<defs>
<clipPath id="clip0_123_2751">
<rect width="24" height="24" fill="white" transform="translate(10 8)"/>
</clipPath>
</defs>
</svg>
