<svg width="44" height="40" viewBox="0 0 44 40" fill="none" xmlns="http://www.w3.org/2000/svg">
<g clip-path="url(#clip0_123_2700)">
<path d="M22 22.9932C20.3432 22.9932 19 24.3363 19 25.9932V31.9932H25V25.9932C25 24.3363 23.6568 22.9932 22 22.9932Z" fill="#EB235C"/>
<path d="M27 25.9929V31.9929H31C32.6568 31.9929 34 30.6497 34 28.9929V19.8719C34.0002 19.3524 33.7983 18.8532 33.437 18.4799L24.939 9.29285C23.4396 7.67051 20.9089 7.5709 19.2865 9.07034C19.2095 9.14159 19.1352 9.21579 19.064 9.29285L10.581 18.4769C10.2087 18.8517 9.99986 19.3586 10 19.8869V28.9929C10 30.6497 11.3432 31.9929 13 31.9929H17V25.9929C17.0187 23.2661 19.2203 21.0393 21.8784 20.9752C24.6255 20.9089 26.9791 23.1736 27 25.9929Z" fill="#EB235C"/>
<path d="M22 22.9932C20.3432 22.9932 19 24.3363 19 25.9932V31.9932H25V25.9932C25 24.3363 23.6568 22.9932 22 22.9932Z" fill="#EB235C"/>
</g>
<defs>
<clipPath id="clip0_123_2700">
<rect width="24" height="24" fill="white" transform="translate(10 8)"/>
</clipPath>
</defs>
</svg>
