<svg width="44" height="40" viewBox="0 0 44 40" fill="none" xmlns="http://www.w3.org/2000/svg">
<path d="M28 21C27.1205 20.997 26.2646 21.2849 25.5657 21.8189C24.8668 22.3529 24.364 23.103 24.1358 23.9525C23.9076 24.8019 23.9667 25.703 24.3038 26.5154C24.641 27.3278 25.2374 28.0058 26 28.444V31.277C26 31.4197 26.0422 31.5591 26.1214 31.6778C26.2006 31.7964 26.3133 31.8889 26.4451 31.9435C26.5769 31.9981 26.7219 32.0124 26.8618 31.9845C27.0017 31.9567 27.1302 31.8879 27.231 31.787L28 31.019L28.769 31.787C28.8699 31.8879 28.9984 31.9567 29.1383 31.9845C29.2782 32.0124 29.4232 31.9981 29.555 31.9435C29.6868 31.8889 29.7994 31.7964 29.8786 31.6778C29.9578 31.5591 30.0001 31.4197 30 31.277V28.444C30.7627 28.0058 31.359 27.3278 31.6962 26.5154C32.0334 25.703 32.0925 24.8019 31.8642 23.9525C31.636 23.103 31.1333 22.3529 30.4344 21.8189C29.7355 21.2849 28.8796 20.997 28 21Z" fill="#EB235C"/>
<path d="M22 25C21.9988 23.9464 22.2753 22.9111 22.8018 21.9984C23.3283 21.0858 24.086 20.328 24.9987 19.8016C25.9114 19.2752 26.9467 18.9987 28.0004 19C29.054 19.0013 30.0886 19.2803 31 19.809V13C30.9984 11.6744 30.4711 10.4036 29.5338 9.46622C28.5964 8.52888 27.3256 8.00159 26 8H18C16.6744 8.00159 15.4036 8.52888 14.4662 9.46622C13.5289 10.4036 13.0016 11.6744 13 13V25C13.0016 26.3256 13.5289 27.5964 14.4662 28.5338C15.4036 29.4711 16.6744 29.9984 18 30H24V29.46C23.3711 28.8996 22.8678 28.2125 22.5231 27.4439C22.1784 26.6752 22.0001 25.8424 22 25ZM18 12H26C26.2652 12 26.5196 12.1054 26.7071 12.2929C26.8946 12.4804 27 12.7348 27 13C27 13.2652 26.8946 13.5196 26.7071 13.7071C26.5196 13.8946 26.2652 14 26 14H18C17.7348 14 17.4804 13.8946 17.2929 13.7071C17.1054 13.5196 17 13.2652 17 13C17 12.7348 17.1054 12.4804 17.2929 12.2929C17.4804 12.1054 17.7348 12 18 12ZM18 16H26C26.2652 16 26.5196 16.1054 26.7071 16.2929C26.8946 16.4804 27 16.7348 27 17C27 17.2652 26.8946 17.5196 26.7071 17.7071C26.5196 17.8946 26.2652 18 26 18H18C17.7348 18 17.4804 17.8946 17.2929 17.7071C17.1054 17.5196 17 17.2652 17 17C17 16.7348 17.1054 16.4804 17.2929 16.2929C17.4804 16.1054 17.7348 16 18 16ZM21 22H18C17.7348 22 17.4804 21.8946 17.2929 21.7071C17.1054 21.5196 17 21.2652 17 21C17 20.7348 17.1054 20.4804 17.2929 20.2929C17.4804 20.1054 17.7348 20 18 20H21C21.2652 20 21.5196 20.1054 21.7071 20.2929C21.8946 20.4804 22 20.7348 22 21C22 21.2652 21.8946 21.5196 21.7071 21.7071C21.5196 21.8946 21.2652 22 21 22Z" fill="#EB235C"/>
</svg>
