<svg width="44" height="40" viewBox="0 0 44 40" fill="none" xmlns="http://www.w3.org/2000/svg">
<g clip-path="url(#clip0_123_2786)">
<path d="M22 23.9998C24.206 23.9998 26 22.2058 26 19.9998C26 17.7938 24.206 15.9998 22 15.9998C19.794 15.9998 18 17.7938 18 19.9998C18 22.2058 19.794 23.9998 22 23.9998ZM22 24.9998C18.691 24.9998 16 27.6908 16 30.9998C16 31.5528 16.448 31.9998 17 31.9998H27C27.552 31.9998 28 31.5528 28 30.9998C28 27.6908 25.309 24.9998 22 24.9998ZM15.801 17.5188C16.017 18.1078 15.278 18.6568 14.776 18.2818L13.467 17.3698L12.162 18.2818C11.664 18.6558 10.93 18.1158 11.14 17.5288L11.605 16.0728L10.386 15.2238C9.84897 14.8748 10.132 13.9628 10.774 13.9838H12.369L12.74 12.5628C12.908 11.8248 14.034 11.8258 14.202 12.5628L14.573 13.9838H16.158C16.798 13.9628 17.08 14.8688 16.545 15.2178L15.324 16.0708L15.8 17.5178L15.801 17.5188ZM33.708 15.2188L32.487 16.0718L32.963 17.5188C33.179 18.1078 32.44 18.6568 31.938 18.2818L30.629 17.3698L29.324 18.2818C28.826 18.6558 28.093 18.1148 28.302 17.5288L28.767 16.0728L27.548 15.2238C27.011 14.8748 27.294 13.9628 27.936 13.9838H29.531L29.902 12.5628C30.07 11.8248 31.196 11.8258 31.364 12.5628L31.735 13.9838H33.32C33.96 13.9628 34.242 14.8688 33.707 15.2178L33.708 15.2188ZM18.648 10.5148C18.715 10.2068 18.988 9.98484 19.304 9.98584H20.899L21.27 8.56484C21.438 7.82684 22.564 7.82784 22.732 8.56484L23.103 9.98584H24.688C25.328 9.96484 25.61 10.8708 25.075 11.2198L23.854 12.0728L24.33 13.5198C24.546 14.1088 23.806 14.6578 23.305 14.2828L21.996 13.3708L20.691 14.2828C20.193 14.6568 19.459 14.1168 19.669 13.5298L20.134 12.0738L18.915 11.2248C18.687 11.0658 18.582 10.7838 18.648 10.5148Z" fill="#EB235C"/>
</g>
<defs>
<clipPath id="clip0_123_2786">
<rect width="24" height="24" fill="white" transform="translate(10 8)"/>
</clipPath>
</defs>
</svg>
