<svg width="44" height="40" viewBox="0 0 44 40" fill="none" xmlns="http://www.w3.org/2000/svg">
<g clip-path="url(#clip0_123_2720)">
<path d="M20.559 18.728C20.43 19.056 20.315 19.381 20.211 19.705C20.004 20.346 20.494 21.001 21.167 21.001C21.607 21.001 21.987 20.711 22.122 20.292C22.208 20.024 22.302 19.755 22.407 19.488C23.531 16.47 26.374 12.845 29.995 10.841C27.856 13.192 25.38 16.956 24.767 19.082C26.131 18.71 27.673 18.038 29.167 16.831C32.096 14.466 33.515 11.06 33.969 9.272C34.134 8.621 33.632 8.003 32.96 8.002C31.19 8.001 27.64 8.353 24.767 10.673C21.544 13.276 20.752 17.142 20.559 18.73V18.728ZM13 9.5V13H12.5C11.119 13 10 11.881 10 10.5V9.5C10 8.672 10.672 8 11.5 8C12.328 8 13 8.672 13 9.5ZM33.992 29.168C33.978 29.324 33.962 29.443 33.945 29.5C33.515 30.946 32.175 32 30.59 32H21.24C21.72 31.284 22 30.424 22 29.5C22 28.119 23.119 27 24.5 27H31.998C33.168 27 34.097 28.003 33.991 29.168H33.992ZM20 29.505C19.997 30.985 18.708 32.164 17.19 31.982C15.911 31.828 15 30.647 15 29.358V9.5C15 8.964 14.878 8.455 14.662 8H25.165C24.604 8.324 24.048 8.681 23.51 9.115C19.88 12.047 18.879 16.293 18.607 18.231C18.499 18.519 18.399 18.805 18.306 19.092C18.016 19.996 18.177 20.994 18.738 21.764C19.302 22.538 20.211 23 21.168 23C22.288 23 23.292 22.38 23.81 21.415L25.294 21.01C27.01 20.542 28.585 19.754 30.001 18.694V25.001H24.502C22.014 25.001 20.005 27.018 20.001 29.506L20 29.505Z" fill="#EB235C"/>
</g>
<defs>
<clipPath id="clip0_123_2720">
<rect width="24" height="24" fill="white" transform="translate(10 8)"/>
</clipPath>
</defs>
</svg>
