<svg width="6" height="18" viewBox="0 0 6 18" fill="none" xmlns="http://www.w3.org/2000/svg">
<path d="M3.9608 5.2838V1.03131H3.94747C3.94747 0.898002 3.84083 0.804688 3.72085 0.804688H2.24114C2.10783 0.804688 2.01452 0.911333 2.01452 1.03131V5.29713C0.548143 5.8037 0.441497 7.40338 0.481489 7.72332V14.0021V14.0154V14.0287V15.975C0.481489 16.7482 1.10803 17.3747 1.88121 17.3747H4.09411C4.86729 17.3747 5.49383 16.7482 5.49383 15.975V7.70999C5.53383 7.39005 5.42718 5.79037 3.9608 5.2838ZM2.46776 1.25793H3.4809V1.88447H2.46776V1.25793ZM4.08078 16.9082H1.86788C1.52128 16.9082 1.21468 16.7082 1.05471 16.4283H4.89395C4.73398 16.7082 4.42738 16.9082 4.08078 16.9082ZM5.01393 15.9617H0.934733V14.242H5.01393V15.9617ZM5.01393 13.7755H0.934733V9.1897H5.01393V13.7755ZM5.01393 7.65667C5.01393 7.67 5.01393 7.68333 5.01393 7.70999V8.73645H0.934733V7.70999C0.934733 7.69666 0.934733 7.68333 0.934733 7.67C0.934733 7.65667 0.88141 6.07031 2.29446 5.69705C2.40111 5.67039 2.46776 5.57708 2.46776 5.47043V2.35105H3.4809V5.47043C3.4809 5.57708 3.54755 5.67039 3.6542 5.69705C5.06725 6.07031 5.02726 7.64334 5.01393 7.65667Z" fill="black"/>
</svg>
