<svg width="24" height="25" viewBox="0 0 24 25" fill="none" xmlns="http://www.w3.org/2000/svg">
<path d="M12 22.5098C6.47715 22.5098 2 18.0326 2 12.5098C2 6.98692 6.47715 2.50977 12 2.50977C17.5228 2.50977 22 6.98692 22 12.5098C21.9939 18.0301 17.5203 22.5037 12 22.5098ZM12 4.50977C7.6054 4.51088 4.03446 8.05663 4.00224 12.4511C3.97002 16.8456 7.48858 20.4434 11.8827 20.5089C16.2768 20.5745 19.9011 17.0833 20 12.6898V14.4728V12.5098C19.995 8.09355 16.4162 4.51473 12 4.50977ZM13.45 17.4098L8.5 12.4598L13.45 7.50977L14.864 8.92377L11.328 12.4598L14.863 15.9958L13.451 17.4098H13.45Z" fill="#1E1E1E"/>
</svg>
