<svg width="23" height="23" viewBox="0 0 23 23" fill="none" xmlns="http://www.w3.org/2000/svg">
<g clip-path="url(#clip0_42_3990)">
<path d="M15.974 17.4335C15.8002 17.4335 15.6565 17.296 15.6501 17.1209C15.6437 16.9419 15.7835 16.7916 15.9625 16.7851C20.2829 16.6293 21.3871 13.8734 21.6276 12.9815C21.6393 12.9382 21.6497 12.8998 21.6591 12.867L21.6813 12.7568C21.903 11.7226 21.2744 10.715 20.2512 10.4592C19.8064 10.348 19.0705 10.5288 18.6793 10.8003C18.3909 11.0004 18.03 11.3895 17.9488 12.1069C17.9286 12.2849 17.768 12.4124 17.5901 12.3926C17.4121 12.3725 17.2842 12.2119 17.3043 12.0339C17.4129 11.075 17.9109 10.544 18.3095 10.2674C18.858 9.88682 19.7783 9.67256 20.4084 9.82998C21.0656 9.99425 21.6245 10.4014 21.9821 10.9765C22.3389 11.5503 22.4576 12.2294 22.3162 12.889L22.2921 13.0083C22.2903 13.0172 22.2881 13.026 22.2856 13.0346C22.2762 13.0669 22.2658 13.1057 22.2537 13.1504C22.1351 13.5902 21.8573 14.62 21.0043 15.5496C19.9503 16.6984 18.0148 17.36 15.9858 17.4332C15.9819 17.4334 15.9779 17.4335 15.974 17.4335Z" fill="#B39A7C"/>
<path d="M20.1878 20.1143C20.1878 20.2064 20.1649 20.2972 20.1199 20.3862C19.557 21.5117 15.5419 22.3843 10.672 22.3843C5.41645 22.3843 1.15576 21.3682 1.15576 20.1143C1.15576 19.6763 1.67636 19.2668 2.57871 18.9196C4.25677 18.2745 7.25401 17.8447 10.6719 17.8447C15.9276 17.8448 20.1878 18.8608 20.1878 20.1143Z" fill="#A78966"/>
<path d="M20.1886 20.1143C20.1886 20.2064 20.1657 20.2972 20.1207 20.3863C18.4431 21.0318 15.4458 21.462 12.0275 21.462C6.77194 21.462 2.51172 20.4455 2.51172 19.192C2.51172 19.1 2.53463 19.0092 2.57961 18.9196C4.25767 18.2745 7.25491 17.8447 10.6728 17.8447C15.9284 17.8448 20.1886 18.8609 20.1886 20.1143Z" fill="#B39A7C"/>
<path d="M18.1781 9.10498V10.2045C18.1781 12.0473 17.8387 13.814 17.2286 15.3338C16.6181 16.8532 15.7369 18.1261 14.6534 18.9813C13.7117 19.7246 12.664 20.1129 11.6008 20.1129H9.58419C9.05237 20.1129 8.52485 20.0156 8.0125 19.8258C7.49968 19.636 7.00246 19.3532 6.5316 18.9813C4.36449 17.2709 3.00684 13.8901 3.00684 10.2045V9.10502L18.1781 9.10498Z" fill="#C0AB91"/>
<path d="M18.1802 9.10498V10.2045C18.1802 12.0473 17.8408 13.814 17.2307 15.3338C16.6202 16.8532 15.739 18.1261 14.6555 18.9813C13.7138 19.7246 12.6661 20.1129 11.6029 20.1129H11.0564C10.5245 20.1129 9.99701 20.0156 9.48466 19.8258C8.97185 19.636 8.47463 19.3532 8.00377 18.9813C5.8367 17.2708 4.479 13.8901 4.479 10.2045V9.10498H18.1802Z" fill="#D9CCBC"/>
<path d="M18.1781 9.10436C18.1781 9.40054 17.9636 9.68201 17.5762 9.93797C17.4677 10.0097 17.3458 10.0789 17.2113 10.1464C16.3586 10.5736 14.9984 10.9091 13.3605 11.0898C12.7301 11.1594 12.0591 11.2053 11.3604 11.2251C11.1079 11.2321 10.8519 11.2359 10.5925 11.2359C10.4001 11.2359 10.2094 11.2342 10.0204 11.2299C9.25082 11.2139 8.5132 11.1659 7.82485 11.0894C6.29987 10.9216 5.01568 10.6189 4.15784 10.2333C3.94813 10.1394 3.76439 10.0404 3.60829 9.9375C3.22088 9.68196 3.00684 9.40007 3.00684 9.10432C3.00684 8.55001 3.75959 8.04544 4.99362 7.66623C5.5583 7.49287 6.22416 7.3454 6.96395 7.23168C7.87238 7.09288 8.8941 7.00382 9.97976 6.97959C10.1817 6.97482 10.3862 6.97266 10.5924 6.97266C10.8644 6.97266 11.1325 6.97657 11.3967 6.98477C12.411 7.01461 13.3657 7.10066 14.221 7.23168C15.0689 7.36181 15.819 7.53564 16.4317 7.74318C17.5226 8.11295 18.1781 8.58725 18.1781 9.10436Z" fill="#EBE5DD"/>
<path d="M17.5783 9.9391C17.4697 10.0109 17.3478 10.0801 17.2134 10.1475C16.3607 10.5747 15.0005 10.9102 13.3626 11.091C12.7733 11.1563 12.1485 11.2003 11.4986 11.222C11.4532 11.2237 11.4078 11.225 11.3624 11.2263C11.1099 11.2332 10.854 11.2371 10.5945 11.2371C10.4021 11.2371 10.2115 11.2354 10.0225 11.2311C9.25288 11.2151 8.51526 11.1671 7.82691 11.0905C6.30193 10.9228 5.01774 10.6201 4.1599 10.2344C3.95019 10.1406 3.76645 10.0416 3.61035 9.93868C3.94891 9.71515 4.41977 9.51148 4.99568 9.3342C5.56036 9.16084 6.22622 9.01337 6.96601 8.90007C7.87444 8.76085 8.89616 8.67221 9.98183 8.64755C10.1838 8.64279 10.3883 8.64062 10.5945 8.64062C10.8665 8.64062 11.1345 8.64496 11.3987 8.65274C11.4333 8.65359 11.4684 8.65491 11.5029 8.65618C12.4784 8.68862 13.3972 8.77292 14.223 8.90003C15.0709 9.02973 15.8211 9.20399 16.4338 9.41153C16.9007 9.56984 17.2877 9.74712 17.5783 9.9391Z" fill="#554431"/>
<path d="M17.5777 9.93912C17.4692 10.0109 17.3473 10.0801 17.2128 10.1475C16.3601 10.5747 14.9999 10.9102 13.3621 11.091C12.7727 11.1563 12.1479 11.2004 11.4981 11.222C10.8525 11.1999 10.2321 11.1554 9.64751 11.0906C8.12254 10.9228 6.83835 10.6201 5.9805 10.2345C5.97838 10.2335 5.97629 10.2326 5.97425 10.2316C5.72139 10.1181 5.72446 9.75802 5.97731 9.64448C6.22329 9.53399 6.50437 9.43026 6.81628 9.33423C7.38096 9.16086 8.04682 9.01339 8.78661 8.9001C9.61074 8.77384 10.5282 8.68911 11.5024 8.65625C12.4778 8.68869 13.3966 8.77299 14.2225 8.9001C15.0704 9.0298 15.8205 9.20406 16.4332 9.4116C16.9002 9.56987 17.2872 9.74714 17.5777 9.93912Z" fill="#6A563D"/>
<path d="M9.30979 2.15436C9.30979 1.97521 9.16461 1.83008 8.98551 1.83008C8.80641 1.83008 8.66123 1.97521 8.66123 2.15436C8.66123 2.35663 8.60325 2.43969 8.50717 2.57726C8.39286 2.74097 8.23633 2.96518 8.23633 3.37146C8.23633 3.77775 8.3929 4.00195 8.50717 4.16571C8.60325 4.30328 8.66123 4.38635 8.66123 4.58857C8.66123 4.7908 8.60325 4.87387 8.50717 5.01139C8.39286 5.17511 8.23633 5.39931 8.23633 5.80555C8.23633 5.98466 8.38146 6.12983 8.56061 6.12983C8.73971 6.12983 8.88489 5.9847 8.88489 5.80555C8.88489 5.60333 8.94287 5.52026 9.03895 5.38273C9.15322 5.21902 9.30979 4.99481 9.30979 4.58857C9.30979 4.18229 9.15326 3.95813 9.03895 3.79441C8.94287 3.6568 8.88489 3.57374 8.88489 3.37146C8.88489 3.16919 8.94287 3.08608 9.03895 2.94852C9.15322 2.7848 9.30979 2.56064 9.30979 2.15436Z" fill="#EBE5DD"/>
<path d="M12.528 3.37146C12.528 3.16915 12.5859 3.08608 12.682 2.94852C12.7963 2.7848 12.9529 2.56064 12.9529 2.15436C12.9529 1.97521 12.8077 1.83008 12.6286 1.83008C12.4494 1.83008 12.3043 1.97521 12.3043 2.15436C12.3043 2.35663 12.2463 2.43969 12.1502 2.57726C12.0359 2.74097 11.8794 2.96518 11.8794 3.37146C11.8794 3.77775 12.0359 4.00195 12.1502 4.16567C12.2463 4.30328 12.3043 4.38635 12.3043 4.58857C12.3043 4.7908 12.2463 4.87387 12.1502 5.01139C12.0359 5.17511 11.8794 5.39931 11.8794 5.80555C11.8794 5.9847 12.0245 6.12983 12.2037 6.12983C12.3828 6.12983 12.528 5.9847 12.528 5.80555C12.528 5.60328 12.5859 5.52026 12.682 5.38273C12.7963 5.21902 12.9529 4.99481 12.9529 4.58857C12.9529 4.18229 12.7963 3.95813 12.682 3.79441C12.5859 3.65685 12.528 3.57378 12.528 3.37146Z" fill="#EBE5DD"/>
<path d="M11.1325 0.942443C11.1325 0.763299 10.9874 0.618164 10.8083 0.618164C10.6292 0.618164 10.484 0.763299 10.484 0.942443C10.484 1.26366 10.4069 1.40952 10.3092 1.5941C10.1978 1.80475 10.0591 2.06692 10.0591 2.549C10.0591 3.03108 10.1978 3.29329 10.3092 3.50394C10.4069 3.68861 10.484 3.83447 10.484 4.1556C10.484 4.47673 10.4069 4.62251 10.3092 4.80713C10.1978 5.01774 10.0591 5.2799 10.0591 5.76199C10.0591 5.94113 10.2043 6.08627 10.3834 6.08627C10.5625 6.08627 10.7076 5.94113 10.7076 5.76199C10.7076 5.44085 10.7848 5.29504 10.8824 5.11041C10.9939 4.89981 11.1325 4.63764 11.1325 4.1556C11.1325 3.67352 10.9939 3.41131 10.8824 3.20066C10.7848 3.01599 10.7076 2.87013 10.7076 2.549C10.7076 2.22787 10.7848 2.08197 10.8824 1.89738C10.9939 1.68674 11.1325 1.42461 11.1325 0.942443Z" fill="#EBE5DD"/>
</g>
<defs>
<clipPath id="clip0_42_3990">
<rect width="21.766" height="21.766" fill="white" transform="translate(0.882812 0.617188)"/>
</clipPath>
</defs>
</svg>
