<svg width="15" height="16" viewBox="0 0 15 16" fill="none" xmlns="http://www.w3.org/2000/svg">
<path fill-rule="evenodd" clip-rule="evenodd" d="M5.81152 15.2836C5.52282 14.9866 5.52952 14.5118 5.82652 14.223L12.4734 7.76076L5.82652 1.29846C5.52952 1.00976 5.52282 0.534855 5.81152 0.237955C6.10032 -0.0590447 6.57512 -0.0657451 6.87212 0.222955L14.0721 7.22296C14.2173 7.36416 14.2993 7.55816 14.2993 7.76076C14.2993 7.96326 14.2173 8.15725 14.0721 8.29845L6.87212 15.2985C6.57512 15.5873 6.10032 15.5806 5.81152 15.2836Z" fill="black"/>
<path fill-rule="evenodd" clip-rule="evenodd" d="M1.01152 14.1165C0.722817 13.8195 0.729516 13.3446 1.02652 13.0559L6.47332 7.76075L1.02652 2.46545C0.729516 2.17675 0.722817 1.70195 1.01152 1.40495C1.30032 1.10795 1.77512 1.10125 2.07212 1.38995L8.07212 7.22295C8.21732 7.36415 8.29932 7.55815 8.29932 7.76075C8.29932 7.96335 8.21732 8.15725 8.07212 8.29845L2.07212 14.1314C1.77512 14.4202 1.30032 14.4135 1.01152 14.1165Z" fill="black"/>
</svg>
