<svg width="17" height="17" viewBox="0 0 17 17" fill="none" xmlns="http://www.w3.org/2000/svg">
<g clip-path="url(#clip0_246_2868)">
<path d="M11.4971 16.7452C11.8692 16.7442 12.1948 16.495 12.2929 16.1361L13.0517 13.303L15.9255 12.5347C16.3634 12.4156 16.6227 11.9652 16.506 11.5268L15.016 5.97319L15.1339 5.53416C15.2406 5.12981 15.027 4.70975 14.6375 4.5575L13.9666 2.05298C13.8465 1.61546 13.3971 1.35581 12.9581 1.47012L8.0571 2.78481L3.94746 1.68304C3.77901 1.63681 3.60013 1.64649 3.43771 1.71055L2.41105 0.685652C2.06498 0.336441 1.55863 0.199018 1.08355 0.325512C0.60847 0.452007 0.237401 0.82295 0.11078 1.29803C-0.0158402 1.77311 0.121332 2.27959 0.470418 2.62566L2.34171 4.49696L0.0997262 12.8665C-0.0175988 13.3054 0.241923 13.7565 0.680322 13.8758L11.2834 16.7167C11.353 16.7357 11.4249 16.7454 11.4971 16.7452ZM15.975 11.6686C16.0138 11.8142 15.928 11.9639 15.7828 12.004L13.216 12.69L14.7311 7.03414L15.975 11.6686ZM13.0986 2.00085C13.1693 1.9815 13.2448 1.9913 13.3082 2.02798C13.3716 2.06454 13.4177 2.12508 13.4363 2.19593L14.0217 4.38252L9.11717 3.06858L13.0986 2.00085ZM8.37868 8.59491L6.99326 8.13315L7.91691 7.20862L8.37868 8.59391V8.59491ZM7.26183 7.08903L4.93342 4.76037C4.82627 4.65322 4.65241 4.65322 4.54526 4.7605C4.43811 4.86765 4.43824 5.0415 4.54551 5.14865L6.87405 7.47668L6.48615 7.86509L2.60513 3.98407L2.99316 3.59604L3.76908 4.37234C3.83855 4.44168 3.93954 4.46882 4.03438 4.44332C4.1291 4.41794 4.20309 4.34396 4.22846 4.24924C4.25383 4.15453 4.22683 4.05341 4.15749 3.98407L3.38143 3.20801L3.76946 2.81974L7.64985 6.70076L7.26183 7.08903ZM1.82883 3.20801L2.99316 2.04368L3.38118 2.43171L2.2171 3.59604L1.82883 3.20801ZM0.617514 1.65566C0.617514 1.32265 0.818122 1.0223 1.12575 0.894928C1.43351 0.767554 1.78762 0.838024 2.02303 1.07355L2.60513 1.65566L1.4408 2.81999L0.858445 2.23763C0.703686 2.08363 0.616886 1.8741 0.617514 1.65566ZM0.630201 13.0106L2.79029 4.94553L6.29182 8.44706C6.32046 8.47508 6.35488 8.49631 6.39282 8.50937C6.39495 8.50937 6.39659 8.51238 6.3991 8.51314L8.20671 9.11685C8.26311 9.13544 8.32227 9.14461 8.38169 9.14436C8.48507 9.14398 8.58619 9.11421 8.67312 9.05844L11.8288 9.90584C11.8521 9.91224 11.8761 9.91551 11.9002 9.91539C12.038 9.91539 12.1543 9.81326 12.1721 9.67672C12.1901 9.54017 12.1041 9.41154 11.971 9.37599L8.9251 8.55823C8.92234 8.51163 8.91392 8.46553 8.89985 8.42094L8.29615 6.6132C8.29615 6.61069 8.29313 6.60906 8.292 6.60654C8.27894 6.56899 8.25771 6.53469 8.22995 6.50618L3.98866 2.26313L14.4084 5.05419C14.4788 5.07303 14.5389 5.119 14.5753 5.18219C14.6117 5.24525 14.6215 5.32024 14.6027 5.39071L11.763 15.9925C11.7443 16.063 11.6982 16.1232 11.635 16.1596C11.5718 16.196 11.4967 16.2058 11.4264 16.1869L0.824403 13.347C0.754058 13.3281 0.694014 13.2821 0.65746 13.2191C0.621031 13.1559 0.611233 13.0809 0.630201 13.0106Z" fill="white"/>
<path d="M12.7532 6.73341C12.8908 6.73329 13.0072 6.63116 13.0251 6.49462C13.043 6.3582 12.9569 6.22944 12.824 6.1939L8.921 5.14815C8.82528 5.11963 8.72178 5.14538 8.65055 5.21535C8.57933 5.28519 8.55169 5.38832 8.57832 5.48442C8.60496 5.58064 8.68183 5.65475 8.77881 5.67799L12.6821 6.72399C12.7053 6.73027 12.7292 6.73341 12.7532 6.73341Z" fill="white"/>
<path d="M12.3269 8.32434C12.4646 8.32421 12.5809 8.22221 12.5989 8.08567C12.6168 7.94912 12.5308 7.82049 12.3978 7.78482L9.74414 7.07496C9.6488 7.04783 9.54629 7.07408 9.47582 7.14393C9.40535 7.21364 9.3781 7.31602 9.40435 7.41161C9.4306 7.50721 9.50635 7.58119 9.60257 7.60506L12.2562 8.31504C12.2792 8.32119 12.3031 8.32434 12.3269 8.32434Z" fill="white"/>
<path d="M3.85906 8.90584L3.06329 8.69267C2.96782 8.66478 2.86469 8.69066 2.79384 8.7605C2.723 8.83022 2.69536 8.93284 2.72174 9.02881C2.74812 9.12466 2.82424 9.19877 2.92084 9.22251L3.71662 9.43606C3.73998 9.44221 3.76385 9.44536 3.78796 9.44536C3.92577 9.44548 4.04221 9.34336 4.06017 9.20681C4.07814 9.07027 3.99209 8.94151 3.85906 8.90584Z" fill="white"/>
<path d="M11.7396 11.3014C11.7788 11.1551 11.6919 11.0048 11.5457 10.9655L5.44903 9.33227C5.30759 9.30464 5.16891 9.39131 5.13148 9.5305C5.09417 9.66968 5.17092 9.81414 5.30721 9.86099L11.4035 11.4944C11.4267 11.5008 11.4506 11.5039 11.4746 11.5039C11.5985 11.504 11.7072 11.421 11.7396 11.3014Z" fill="white"/>
<path d="M3.43291 10.4958L2.63713 10.2825C2.49104 10.2442 2.34143 10.3311 2.30237 10.4769C2.2633 10.6229 2.3496 10.773 2.49531 10.8127L3.29109 11.0256C3.3142 11.032 3.33807 11.0353 3.36218 11.0352C3.49986 11.0353 3.6163 10.9332 3.63427 10.7966C3.65236 10.6601 3.56631 10.5313 3.43316 10.4958H3.43291Z" fill="white"/>
<path d="M11.1198 12.5561L5.02354 10.9225C4.92782 10.8941 4.82432 10.9198 4.75309 10.9897C4.68187 11.0597 4.65423 11.1627 4.68086 11.2589C4.70749 11.355 4.78437 11.4291 4.88135 11.4525L10.9777 13.086C11.001 13.0924 11.025 13.0956 11.0491 13.0956C11.1867 13.0955 11.3031 12.9934 11.321 12.8568C11.3389 12.7203 11.2528 12.5917 11.1198 12.5561Z" fill="white"/>
</g>
<defs>
<clipPath id="clip0_246_2868">
<rect width="16.4695" height="16.4695" fill="white" transform="translate(0.0644531 0.274414)"/>
</clipPath>
</defs>
</svg>
