<svg width="25" height="25" viewBox="0 0 25 25" fill="none" xmlns="http://www.w3.org/2000/svg">
<path d="M12.5 20.8047C11.3954 20.8047 10.5 19.9093 10.5 18.8047C10.5 17.7001 11.3954 16.8047 12.5 16.8047C13.6046 16.8047 14.5 17.7001 14.5 18.8047C14.5 19.9093 13.6046 20.8047 12.5 20.8047ZM12.5 14.8047C11.3954 14.8047 10.5 13.9093 10.5 12.8047C10.5 11.7001 11.3954 10.8047 12.5 10.8047C13.6046 10.8047 14.5 11.7001 14.5 12.8047C14.5 13.3351 14.2893 13.8438 13.9142 14.2189C13.5391 14.594 13.0304 14.8047 12.5 14.8047ZM12.5 8.80469C11.3954 8.80469 10.5 7.90926 10.5 6.80469C10.5 5.70012 11.3954 4.80469 12.5 4.80469C13.6046 4.80469 14.5 5.70012 14.5 6.80469C14.5 7.33512 14.2893 7.84383 13.9142 8.2189C13.5391 8.59398 13.0304 8.80469 12.5 8.80469Z" fill="#1E1E1E"/>
</svg>
