<svg width="25" height="25" viewBox="0 0 25 25" fill="none" xmlns="http://www.w3.org/2000/svg">
<path d="M12.5 22.5C6.97715 22.5 2.5 18.0228 2.5 12.5C2.5 6.97715 6.97715 2.5 12.5 2.5C18.0228 2.5 22.5 6.97715 22.5 12.5C22.4939 18.0203 18.0203 22.4939 12.5 22.5ZM12.5 4.5C8.1054 4.50111 4.53446 8.04686 4.50224 12.4413C4.47002 16.8358 7.98858 20.4336 12.3827 20.4991C16.7768 20.5647 20.4011 17.0735 20.5 12.68V14.463V12.5C20.495 8.08378 16.9162 4.50496 12.5 4.5ZM13.95 17.4L9 12.45L13.95 7.5L15.364 8.914L11.828 12.45L15.363 15.986L13.951 17.4H13.95Z" fill="white"/>
</svg>
