<svg width="23" height="23" viewBox="0 0 23 23" fill="none" xmlns="http://www.w3.org/2000/svg">
<path fill-rule="evenodd" clip-rule="evenodd" d="M13.336 8.83528L13.5669 10.669L12.793 12.5746V14.29C12.793 14.2904 12.3222 15.7622 12.3222 15.7622L12.7402 18.4046L11.7743 20.7489L12.4178 21.0142L13.4583 18.4891L13.0356 15.817L13.4894 14.399V12.7106L14.2799 10.7626L14.0126 8.63714L15.1945 10.5835L15.0752 12.8462L18.2999 14.7278V15.1418L17.6403 18.0033L18.5024 20.9784L19.171 20.7846L18.3594 17.9836L18.6153 16.8732L20.5844 20.1712L21.1818 19.8143L18.9959 16.1532V14.3281L15.7926 12.459L15.9008 10.4057L13.9111 7.12819L13.2932 7.17263L12.7379 8.47676L11.4842 10.3088L10.1791 12.5589V14.6579C10.1794 14.6579 9.26356 14.9296 9.26356 14.9296L6.22226 20.7215L6.83874 21.0449L9.74305 15.5133L10.8754 15.1775V12.746L12.0733 10.6804L13.336 8.83528ZM3.82818 19.4909V20.8832H4.52452V19.4909H3.82818ZM3.82818 16.7065V18.0989H4.52452V16.7065H3.82818ZM3.82818 13.9222V15.3142H4.52452V13.9222H3.82818ZM7.30887 12.5298V13.9222H8.00488V12.5298H7.30887ZM3.82818 11.1375V12.5298H4.52452V11.1375H3.82818ZM7.30887 9.74547V11.1375H8.00488V9.74547H7.30887ZM17.7506 9.74547V11.1375H18.4466V9.74547H17.7506ZM3.82818 8.35313V9.74547H4.52452V8.35313H3.82818ZM7.30887 6.96078V8.35313H8.00488V6.96078H7.30887ZM17.7506 6.96078V8.35313H18.4466V6.96078H17.7506ZM6.51096 7.20704L7.65704 6.06096L8.81916 7.22308L9.31135 6.7309L7.65704 5.0766L6.01844 6.71486L6.51096 7.20704ZM3.82818 5.56878V6.96078H4.52452V5.56878H3.82818ZM13.9221 1.04224L6.2647 1.04391V1.73992L13.2257 1.73825V6.26478H13.9221V1.73825L18.1065 1.73992L18.1068 1.04391L13.9221 1.04224ZM17.7506 4.17643V5.56878H18.4466V4.17643H17.7506ZM16.9527 4.42269L18.0988 3.27627L19.2609 4.43873L19.7531 3.94655L18.0988 2.29191L16.4602 3.93018L16.9527 4.42269ZM3.82818 2.78409V4.17643H4.52452V2.78409H3.82818ZM3.03027 3.03035L4.17635 1.88427L5.33881 3.04639L5.83099 2.55421L4.17635 0.899902L2.53809 2.53817L3.03027 3.03035Z" fill="white"/>
</svg>
