<svg width="23" height="22" viewBox="0 0 23 22" fill="none" xmlns="http://www.w3.org/2000/svg">
<g clip-path="url(#clip0_42_3389)">
<path d="M8.00358 8.66792C8.1386 8.80295 8.1386 9.02193 8.00358 9.15739L7.75213 9.40883C7.68462 9.47635 7.5959 9.5101 7.50762 9.5101C7.41933 9.5101 7.33061 9.47635 7.2631 9.40883C7.12807 9.27381 7.12807 9.05482 7.2631 8.91936L7.51454 8.66792C7.64957 8.5329 7.86855 8.5329 8.00358 8.66792ZM12.15 11.3278C12.4672 12.5175 11.9193 13.7011 10.9291 13.9673C10.7945 14.0032 10.6587 14.0205 10.5236 14.0205C9.66111 14.0205 8.82671 13.3198 8.55104 12.2924C8.26194 11.2092 8.69039 10.1311 9.51786 9.74597C9.53214 9.37075 9.59922 9.06305 9.69746 8.81074C9.47025 8.86743 9.24261 8.92153 9.01497 8.97303C8.9717 9.34521 8.81893 9.6897 8.55234 9.95673C8.23208 10.2761 7.8006 10.4323 7.34403 10.4323C6.76411 10.4323 6.14307 10.1809 5.6562 9.69403C5.61466 9.65248 5.57484 9.60921 5.53632 9.56506C5.32513 9.5893 5.1135 9.61137 4.90101 9.63128C5.26714 9.83988 5.61292 10.103 5.92582 10.4155C6.82123 11.3109 7.31157 12.4768 7.27089 13.6141C7.2644 13.7954 7.11855 13.9413 6.93722 13.9473C6.89524 13.9486 6.85239 13.9495 6.81041 13.9495C5.71419 13.9495 4.60196 13.4626 3.7403 12.601C2.94097 11.8016 2.46448 10.7864 2.39957 9.76804C2.2204 9.77107 2.04166 9.7728 1.86249 9.7728C1.57556 9.7728 1.28863 9.7689 1.00213 9.76154C0.729053 9.75549 0.473283 9.64253 0.283727 9.44345C0.0946041 9.24524 -0.00579984 8.98471 0.00025902 8.7112C0.00631788 8.43639 0.119705 8.18062 0.318782 7.99106C0.517858 7.8015 0.78012 7.70153 1.0532 7.70846C1.55955 7.72187 2.06763 7.72231 2.57527 7.71019C2.79512 7.0792 3.20063 6.60834 3.71347 6.39931C4.26743 6.1734 4.90231 6.25 5.60297 6.62436C6.34215 6.10502 7.47299 6.26385 8.26497 7.03419C8.40606 7.00347 8.54757 6.97187 8.68909 6.93898C8.27666 6.044 8.19789 4.96639 8.47963 3.91258C8.80811 2.68913 9.57195 1.68206 10.5764 1.14845C10.737 1.06319 10.9356 1.11642 11.0321 1.27049C11.6354 2.23515 11.7934 3.4902 11.4653 4.71365C11.2935 5.35676 11.0005 5.94014 10.6149 6.42658C11.0525 6.29458 11.4848 6.15436 11.9059 6.00678C12.5265 5.79083 13.0359 6.176 13.1999 6.64773C13.3674 7.12811 13.209 7.7288 12.5828 7.94692C11.9739 8.15941 11.3511 8.35632 10.7266 8.53506C10.4366 8.75404 10.2666 9.11065 10.2198 9.60055C11.0668 9.62306 11.8791 10.3172 12.15 11.3278ZM5.43635 10.9054C4.76728 10.2363 3.92899 9.83338 3.09244 9.76977C3.15736 10.6063 3.56027 11.4442 4.22891 12.1128C4.89755 12.7815 5.73583 13.1848 6.57195 13.2493C6.50834 12.4127 6.10542 11.5744 5.43635 10.9054ZM9.98093 7.32891C9.75632 7.38994 9.52954 7.44836 9.30234 7.50462C9.29281 7.50722 9.28329 7.50981 9.27334 7.51198C9.09201 7.55699 8.91024 7.60026 8.72847 7.64181C8.84186 7.84608 8.92409 8.05987 8.97299 8.2741C9.36942 8.18278 9.76627 8.08324 10.1566 7.97678C10.2592 7.94865 10.3613 7.92009 10.4639 7.89109C10.4708 7.88893 10.4778 7.88719 10.4842 7.88503C11.1131 7.70629 11.7406 7.50808 12.3538 7.29429C12.633 7.19692 12.5711 6.94937 12.5451 6.8758C12.5265 6.82257 12.4188 6.56074 12.1323 6.66071C11.4377 6.90436 10.7132 7.12897 9.98093 7.32891ZM9.33523 6.69057C10.0277 6.21711 10.5518 5.44894 10.7963 4.53535C11.0412 3.62133 10.9716 2.69389 10.6093 1.93783C9.92423 2.41085 9.38889 3.19331 9.1474 4.09262C8.90288 5.00664 8.97299 5.93408 9.33523 6.69057ZM3.33739 7.68292C3.88355 7.65652 4.42842 7.61541 4.97025 7.55958C5.00574 7.41807 5.05811 7.28391 5.12605 7.15927C4.67986 6.95067 4.29339 6.91085 3.97444 7.04069C3.66327 7.16792 3.46333 7.43321 3.33739 7.68292ZM5.11653 8.9159C5.02132 8.70341 4.959 8.48226 4.93174 8.25938C4.24059 8.32776 3.54426 8.3732 2.84706 8.39527C2.84273 8.39527 2.8384 8.39614 2.83407 8.39614C2.83191 8.39614 2.82974 8.3957 2.82715 8.3957C2.22905 8.41431 1.63052 8.41648 1.03459 8.4009C0.945008 8.39917 0.860184 8.43119 0.795268 8.49308C0.730351 8.55497 0.693565 8.63806 0.691401 8.72808C0.689238 8.81766 0.722128 8.90249 0.784015 8.9674C0.845902 9.03232 0.928995 9.0691 1.01815 9.07083C2.38875 9.10675 3.76454 9.05439 5.11653 8.9159ZM8.34071 8.73327C8.33854 8.71423 8.33811 8.69519 8.33898 8.67658C8.32037 8.33079 8.16587 7.95687 7.88673 7.64094L7.8837 7.63748C7.8573 7.60762 7.83047 7.57863 7.8019 7.55006C7.50112 7.24928 7.12807 7.06103 6.75156 7.02034C6.70179 7.01515 6.65288 7.01212 6.60485 7.01212C6.31748 7.01212 6.06517 7.1082 5.88427 7.2891C5.69515 7.47779 5.62937 7.70932 5.61292 7.89801C5.61249 7.9045 5.61206 7.91056 5.61119 7.91706C5.60903 7.94908 5.60773 7.97981 5.60773 8.00837C5.60773 8.34377 5.73324 8.68999 5.95871 8.98991C5.96261 8.9951 5.96693 9.00073 5.97083 9.00592C6.02406 9.07516 6.08249 9.14181 6.14567 9.20543C6.74636 9.80612 7.60672 9.92383 8.06373 9.46769C8.25329 9.27727 8.34331 9.0163 8.34071 8.73327ZM11.4818 11.5065C11.2619 10.6868 10.5751 10.1554 9.95107 10.3211C9.3283 10.4886 9.00026 11.2927 9.21924 12.1132C9.43909 12.9329 10.1259 13.4652 10.75 13.2986C11.3723 13.1316 11.7008 12.3275 11.4818 11.5065ZM10.6738 12.3322L10.3315 12.4244C10.1471 12.4742 10.0376 12.6637 10.0874 12.8481C10.1289 13.0026 10.2687 13.1043 10.4211 13.1043C10.4509 13.1043 10.4812 13.1004 10.5111 13.0922L10.8534 13C11.0378 12.9502 11.1473 12.7607 11.0975 12.5763C11.0482 12.392 10.8582 12.2829 10.6738 12.3322ZM21.7715 18.5672L18.1448 20.6601C18.0267 20.7289 17.8951 20.764 17.7609 20.764C17.6939 20.764 17.6259 20.7549 17.5588 20.7372C17.3589 20.6835 17.1923 20.5554 17.0901 20.3767L16.286 18.9836C15.4231 18.3863 15.1548 17.9198 14.9379 17.5433C14.6835 17.1014 14.4995 16.782 13.209 16.3172C12.5274 16.074 12.1638 15.3236 12.3638 14.5718C12.3664 14.5623 12.3694 14.5528 12.3724 14.5437C12.6317 13.824 13.4276 13.4497 14.1473 13.7085L15.9714 14.365C16.2103 14.4507 16.4925 14.4269 16.7655 14.2975C17.0702 14.1533 17.3126 13.8984 17.413 13.6163C17.5515 13.2255 17.4485 12.7866 17.1563 12.5248C16.8231 12.2262 16.3215 12.2141 15.7425 12.4906L14.429 13.2497C14.136 13.4185 13.7932 13.4635 13.4648 13.3752C13.1359 13.2869 12.8615 13.077 12.6927 12.784C12.523 12.4906 12.4785 12.1479 12.5668 11.819C12.6373 11.5558 12.7862 11.3278 12.993 11.1607C12.6633 10.9305 12.4464 10.5483 12.4464 10.1164C12.4464 9.70398 12.6442 9.33699 12.9498 9.10459C12.9199 8.99553 12.9043 8.88258 12.9043 8.76832C12.9043 8.0668 13.4743 7.49597 14.1754 7.49597H16.9906C17.8336 7.49597 18.5248 8.15941 18.5694 8.9912C19.1112 9.24221 19.4881 9.79097 19.4881 10.4263V11.0967L19.5505 11.1347C20.0291 11.4282 20.3044 11.9189 20.3044 12.482V14.2438C20.3044 14.4074 20.3411 14.5446 20.4238 14.6887L22.0541 17.5121C22.267 17.8804 22.1402 18.3539 21.7715 18.5672ZM18.7961 10.4263C18.7961 9.93595 18.3971 9.53693 17.9068 9.53693H16.8876C16.9889 9.57415 17.088 9.62176 17.1832 9.68018L18.7966 10.6717L18.7961 10.4263ZM15.5637 9.65811C15.6486 9.60921 15.736 9.56939 15.8251 9.53693H13.7171C13.3977 9.53693 13.138 9.7966 13.138 10.116C13.138 10.4358 13.3977 10.6963 13.7171 10.6963H13.7651L15.5637 9.65811ZM13.602 8.85055C13.64 8.84709 13.6786 8.84493 13.7175 8.84493H17.8484C17.7458 8.46668 17.4009 8.18754 16.9906 8.18754H14.1754C13.856 8.18754 13.5963 8.44764 13.5963 8.76789C13.5959 8.79559 13.5981 8.82329 13.602 8.85055ZM21.4547 17.8583L19.824 15.034C19.6812 14.7856 19.6119 14.5277 19.6119 14.2438V12.482C19.6119 12.1609 19.4613 11.8917 19.1882 11.7246L16.8201 10.2692C16.5336 10.0926 16.2016 10.0879 15.9095 10.2566L14.0308 11.3412C14.0274 11.3429 14.0243 11.3451 14.0209 11.3468L13.5037 11.6454C13.3704 11.722 13.2752 11.8471 13.235 11.9973C13.1947 12.1479 13.2151 12.3041 13.2921 12.4374C13.3687 12.5707 13.4938 12.6659 13.6439 12.7061C13.7941 12.7464 13.9503 12.7265 14.0832 12.6495L15.4079 11.8839C15.4153 11.8795 15.4231 11.8757 15.4304 11.8718C16.2709 11.4658 17.0685 11.5156 17.6181 12.0085C18.1167 12.4556 18.2963 13.1943 18.0647 13.8469C17.9016 14.3057 17.5359 14.6973 17.0616 14.922C16.621 15.1306 16.151 15.1634 15.7377 15.015L13.9131 14.3598C13.557 14.2317 13.1636 14.413 13.0285 14.7649C12.9424 15.1115 13.0558 15.5287 13.4423 15.6663C14.8696 16.18 15.1859 16.5877 15.5373 17.1984C15.7433 17.5563 15.9567 17.9263 16.74 18.456C16.7833 18.4854 16.8196 18.5244 16.846 18.5698L17.69 20.0322C17.7038 20.056 17.7237 20.0655 17.738 20.0694C17.7501 20.0728 17.7735 20.0759 17.7977 20.062L21.4252 17.9687C21.4638 17.9462 21.4767 17.8964 21.4547 17.8583Z" fill="white"/>
</g>
<defs>
<clipPath id="clip0_42_3389">
<rect width="22.4259" height="21.8719" fill="white"/>
</clipPath>
</defs>
</svg>
