<svg width="8" height="22" viewBox="0 0 8 22" fill="none" xmlns="http://www.w3.org/2000/svg">
<path d="M7.07708 9.61509L7.07665 9.60872C7.03363 8.15732 6.11399 6.89008 4.76491 6.3935V0.272277C4.76491 0.121926 4.64298 0 4.49263 0H2.58669C2.43634 0 2.31441 0.121926 2.31441 0.272277V6.39345C0.965278 6.89003 0.0456887 8.15726 0.00266893 9.60866L0.00223269 9.61503C0.00103467 9.63273 0 9.65038 0 9.66835V20.9499C0 21.529 0.47104 22 1.05001 22H6.02914C6.60817 22 7.07921 21.529 7.07932 20.95V9.6684C7.07932 9.65038 7.07828 9.63273 7.07708 9.61509ZM0.544446 9.66835C0.544446 9.6629 0.545045 9.65751 0.545372 9.65212L0.546352 9.63763C0.546515 9.63475 0.546679 9.63192 0.546733 9.62908C0.583109 8.34159 1.43474 7.22455 2.66592 6.84957C2.78055 6.81466 2.85886 6.70891 2.85886 6.58911V0.544554H4.22024V6.58916C4.22024 6.70897 4.2986 6.81472 4.41318 6.84962C5.64436 7.2246 6.49599 8.34159 6.53237 9.62914C6.53248 9.63202 6.53258 9.63486 6.53275 9.63769L6.53373 9.65217C6.53405 9.65756 6.53465 9.66296 6.53465 9.6684V10.2938H0.544554H0.544446V9.66835ZM6.53465 10.8383V18.9505H0.544554V10.8383H6.53465ZM6.53471 20.9499C6.53471 21.2287 6.30796 21.4554 6.0292 21.4554H1.05006C0.771307 21.4554 0.544554 21.2287 0.544554 20.9499V19.495H6.53471V20.9499Z" fill="white"/>
<path d="M1.30695 18.3514C1.4573 18.3514 1.57922 18.2295 1.57922 18.0791V11.7078C1.57922 11.5575 1.4573 11.4355 1.30695 11.4355C1.15659 11.4355 1.03467 11.5575 1.03467 11.7078V18.0791C1.03467 18.2295 1.15659 18.3514 1.30695 18.3514Z" fill="white"/>
</svg>
