<svg width="57" height="57" viewBox="0 0 57 57" fill="none" xmlns="http://www.w3.org/2000/svg">
<path d="M36.6558 24.2022L36.6548 24.1877C36.5567 20.8785 34.4599 17.9892 31.384 16.857V2.90058C31.384 2.55778 31.106 2.27979 30.7632 2.27979H26.4177C26.0749 2.27979 25.7969 2.55778 25.7969 2.90058V16.8569C22.7209 17.9891 20.6242 20.8783 20.5261 24.1875L20.5251 24.2021C20.5224 24.2424 20.52 24.2826 20.52 24.3236V50.0456C20.52 51.3658 21.594 52.4398 22.914 52.4398H34.2665C35.5866 52.4398 36.6606 51.3658 36.6609 50.0458V24.3237C36.6609 24.2826 36.6585 24.2424 36.6558 24.2022ZM21.7614 24.3236C21.7614 24.3112 21.7627 24.2989 21.7635 24.2866L21.7657 24.2536C21.7661 24.247 21.7664 24.2406 21.7666 24.2341C21.8495 21.2986 23.7912 18.7518 26.5983 17.8968C26.8597 17.8172 27.0382 17.5761 27.0382 17.303V3.52137H30.1422V17.3031C30.1422 17.5762 30.3208 17.8173 30.5821 17.8969C33.3892 18.7519 35.3309 21.2986 35.4138 24.2342C35.4141 24.2408 35.4143 24.2473 35.4147 24.2537L35.4169 24.2867C35.4177 24.299 35.419 24.3113 35.419 24.3237V25.7496H21.7616H21.7614V24.3236ZM35.419 26.9912V45.4869H21.7616V26.9912H35.419ZM35.4192 50.0456C35.4192 50.6812 34.9022 51.1982 34.2666 51.1982H22.9142C22.2786 51.1982 21.7616 50.6812 21.7616 50.0456V46.7285H35.4192V50.0456Z" fill="white"/>
</svg>
