<svg width="22" height="22" viewBox="0 0 22 22" fill="none" xmlns="http://www.w3.org/2000/svg">
<g clip-path="url(#clip0_42_3350)">
<path d="M10.8333 13.6291C12.3748 13.6291 13.6291 12.3748 13.6291 10.8333C13.6291 9.29183 12.3748 8.0376 10.8333 8.0376C9.29183 8.0376 8.0376 9.29183 8.0376 10.8333C8.0376 12.3748 9.29183 13.6291 10.8333 13.6291ZM10.8333 8.73653C11.9897 8.73653 12.9301 9.67694 12.9301 10.8333C12.9301 11.9897 11.9897 12.9301 10.8333 12.9301C9.67694 12.9301 8.73653 11.9897 8.73653 10.8333C8.73653 9.67694 9.67694 8.73653 10.8333 8.73653Z" fill="white"/>
<path d="M10.8334 12.2323C11.6043 12.2323 12.2313 11.6053 12.2313 10.8344C12.2313 10.0635 11.6043 9.43652 10.8334 9.43652C10.0625 9.43652 9.43555 10.0635 9.43555 10.8344C9.43555 11.6053 10.0625 12.2323 10.8334 12.2323ZM10.8334 10.1355C11.2189 10.1355 11.5323 10.4489 11.5323 10.8344C11.5323 11.2198 11.2189 11.5333 10.8334 11.5333C10.448 11.5333 10.1345 11.2198 10.1345 10.8344C10.1345 10.4489 10.448 10.1355 10.8334 10.1355Z" fill="white"/>
<path d="M8.53662 14.9622L9.14748 14.67C9.202 14.6941 9.25687 14.7172 9.31208 14.7385L9.53679 15.3766H12.1281L12.3535 14.7385C12.4084 14.7169 12.4632 14.6941 12.5181 14.67L13.129 14.9622L14.9615 13.1296L14.6694 12.5187C14.6935 12.4642 14.7166 12.4093 14.7379 12.3541L15.3757 12.1294V9.53811L14.7375 9.31271C14.7159 9.25784 14.6932 9.20298 14.669 9.14811L14.9612 8.53724L13.1286 6.70464L12.5177 6.9968C12.4632 6.97268 12.4084 6.94962 12.3531 6.9283L12.1284 6.29053H9.53714L9.31173 6.92865C9.25687 6.95032 9.202 6.97303 9.14713 6.99715L8.53627 6.70499L6.70367 8.53759L6.99582 9.14846C6.97171 9.20298 6.94864 9.25784 6.92733 9.31306L6.28955 9.53777V12.1291L6.92768 12.3545C6.94934 12.4093 6.97206 12.4642 6.99617 12.5191L6.70402 13.1299L8.53662 14.9622ZM6.98848 11.6346V10.0323L7.47494 9.86067L7.52981 9.70062C7.57559 9.56677 7.63185 9.43188 7.69685 9.29978L7.77129 9.14776L7.54833 8.68157L8.6813 7.54861L9.14748 7.77156L9.2995 7.69713C9.4316 7.63213 9.56649 7.57621 9.70034 7.53008L9.86039 7.47522L10.0316 6.98946H11.6339L11.8055 7.47592L11.9656 7.53078C12.0994 7.57656 12.2343 7.63283 12.3664 7.69783L12.5184 7.77226L12.9846 7.5493L14.1176 8.68227L13.8946 9.14846L13.9691 9.30048C14.0341 9.43258 14.09 9.56747 14.1361 9.70132L14.191 9.86137L14.6767 10.0326V11.6349L14.1903 11.8065L14.1354 11.9666C14.0896 12.1004 14.0334 12.2353 13.9684 12.3674L13.8939 12.5194L14.1169 12.9856L12.9839 14.1186L12.5177 13.8956L12.3657 13.97C12.2336 14.035 12.0987 14.091 11.9649 14.1371L11.8048 14.192L11.6336 14.6777H10.0313L9.8597 14.1913L9.69964 14.1364C9.56579 14.0906 9.4309 14.0343 9.2988 13.9693L9.14679 13.8949L8.6806 14.1179L7.54763 12.9849L7.77059 12.5187L7.69615 12.3667C7.63115 12.2346 7.57524 12.0997 7.52911 11.9659L7.47424 11.8058L6.98848 11.6346Z" fill="white"/>
<path d="M4.54306 16.0747H1.0484C0.470381 16.0747 0 16.5451 0 17.1231V20.6178C0 21.1958 0.470381 21.6662 1.0484 21.6662H4.54306C5.12108 21.6662 5.59146 21.1958 5.59146 20.6178V17.1231C5.59146 16.5451 5.12108 16.0747 4.54306 16.0747ZM4.89252 20.6178C4.89252 20.8103 4.73561 20.9672 4.54306 20.9672H1.0484C0.855842 20.9672 0.698932 20.8103 0.698932 20.6178V17.1231C0.698932 16.9305 0.855842 16.7736 1.0484 16.7736H4.54306C4.73561 16.7736 4.89252 16.9305 4.89252 17.1231V20.6178Z" fill="white"/>
<path d="M20.6178 8.0376H17.1231C16.5451 8.0376 16.0747 8.50798 16.0747 9.086V12.5807C16.0747 13.1587 16.5451 13.6291 17.1231 13.6291H20.6178C21.1958 13.6291 21.6662 13.1587 21.6662 12.5807V9.086C21.6662 8.50798 21.1958 8.0376 20.6178 8.0376ZM20.9672 12.5807C20.9672 12.7732 20.8103 12.9301 20.6178 12.9301H17.1231C16.9305 12.9301 16.7736 12.7732 16.7736 12.5807V9.086C16.7736 8.89344 16.9305 8.73653 17.1231 8.73653H20.6178C20.8103 8.73653 20.9672 8.89344 20.9672 9.086V12.5807Z" fill="white"/>
<path d="M3.14508 5.59146H6.63974C7.21776 5.59146 7.68814 5.12108 7.68814 4.54306V1.0484C7.68814 0.470381 7.21776 0 6.63974 0H3.14508C2.56706 0 2.09668 0.470381 2.09668 1.0484V4.54306C2.09668 5.12108 2.56706 5.59146 3.14508 5.59146ZM2.79561 1.0484C2.79561 0.855842 2.95252 0.698932 3.14508 0.698932H6.63974C6.83229 0.698932 6.9892 0.855842 6.9892 1.0484V4.54306C6.9892 4.73561 6.83229 4.89252 6.63974 4.89252H3.14508C2.95252 4.89252 2.79561 4.73561 2.79561 4.54306V1.0484Z" fill="white"/>
<path d="M2.09591 19.423L1.64405 18.9711L1.1499 19.4653L2.09591 20.4113L4.43978 18.0674L3.94563 17.5732L2.09591 19.423Z" fill="white"/>
<path d="M6.53743 1.99512L6.04329 1.50098L4.19356 3.3507L3.7417 2.89884L3.24756 3.39299L4.19356 4.33899L6.53743 1.99512Z" fill="white"/>
<path d="M18.1716 11.3878L17.7197 10.936L17.2256 11.4301L18.1716 12.3761L20.5155 10.0322L20.0213 9.53809L18.1716 11.3878Z" fill="white"/>
<path d="M15.9903 15.387L16.1597 16.0649L18.1461 15.5683C16.5417 18.0537 13.8103 19.5701 10.8332 19.5701C9.55449 19.5701 8.32227 19.3003 7.17113 18.7681L6.87793 19.4023C8.12168 19.9776 9.45245 20.269 10.8332 20.269C13.999 20.269 16.9066 18.6824 18.6497 16.074L18.8737 17.8661L19.567 17.7794L19.1687 14.5923L15.9903 15.387Z" fill="white"/>
<path d="M3.8337 12.3128L3.15399 12.1503L2.72764 13.9347C2.30968 12.9003 2.09581 11.8606 2.09581 10.8339C2.09581 9.54435 2.37014 8.30269 2.91111 7.14282L2.27753 6.84717C1.69323 8.10035 1.39688 9.4416 1.39688 10.8339C1.39688 11.9462 1.62578 13.0684 2.07309 14.1814L0.517272 13.3235L0.179688 13.9357L3.06558 15.5265L3.8337 12.3128Z" fill="white"/>
<path d="M11.3764 2.85335L10.2399 2.0957H10.833C14.1022 2.0957 17.073 3.89825 18.5855 6.79987L19.2051 6.47661C17.5721 3.3433 14.364 1.39677 10.833 1.39677H10.2399L11.3764 0.639129L10.9888 0.0576172L8.45557 1.74624L10.9885 3.43486L11.3764 2.85335Z" fill="white"/>
</g>
<defs>
<clipPath id="clip0_42_3350">
<rect width="21.6663" height="21.6663" fill="white"/>
</clipPath>
</defs>
</svg>
