<svg width="23" height="23" viewBox="0 0 23 23" fill="none" xmlns="http://www.w3.org/2000/svg">
<g clip-path="url(#clip0_42_7836)">
<mask id="mask0_42_7836" style="mask-type:luminance" maskUnits="userSpaceOnUse" x="0" y="-1" width="23" height="24">
<path d="M0 -0.000284195H22.0159V22.0156H0V-0.000284195Z" fill="white"/>
</mask>
<g mask="url(#mask0_42_7836)">
<path d="M5.17342 8.17185C5.12259 7.93376 5.0452 7.72074 4.92987 7.55695C4.39069 6.79113 5.12083 5.39944 5.91022 5.33829C6.19166 5.31649 6.54262 5.22632 6.9233 4.47554C7.22632 3.87784 7.14157 4.74468 7.78639 3.77826C8.45508 2.77602 8.03291 2.46397 8.83933 2.22721C9.53889 2.0218 10.8184 1.66649 11.2187 1.29841C13.5816 -0.874324 14.7263 1.71917 13.7671 1.75976C12.5908 1.8096 11.0492 3.35462 11.1868 4.32001M13.4723 7.04452C13.7282 7.09879 14.0296 7.14531 14.386 7.18221C14.9208 7.23755 15.3961 7.41252 15.9641 8.29784C16.1232 8.54586 16.8935 8.50037 17.5694 8.57097C18.4191 8.65977 19.0147 9.24659 18.1633 10.5161C17.7596 11.1181 18.7486 11.8993 18.342 12.3529C17.9229 12.8204 19.2654 14.1799 18.5149 14.625C17.6423 15.1424 17.1008 13.6329 16.1732 14.1886C15.7052 14.4689 16.45 15.0187 16.1189 15.6572C15.9265 16.0283 15.409 15.805 15.2001 16.314C15.0393 16.7058 15.3173 16.8551 15.4635 17.3892C15.692 18.2241 15.3581 18.2946 15.2482 19.0381C15.0895 20.1126 15.6563 21.3992 14.596 21.5791C13.5357 21.759 14.3537 19.1128 12.5867 19.3193C12.212 19.3631 10.6843 19.9637 10.5193 18.7677C10.4844 18.5143 9.82432 18.8352 9.8506 17.9524C9.86165 17.5807 9.32793 18.0761 9.22525 17.236C9.17709 16.8425 6.61619 15.7768 6.46165 16.0423C5.91379 16.9836 4.97119 15.0773 4.00868 15.1154C3.85466 15.1216 2.95639 14.3211 3.38011 14.0642C3.82955 13.7916 2.8756 13.1907 4.24002 13.1097C4.68718 13.0831 5.04309 12.6056 5.20954 12.0418" stroke="white" stroke-width="0.859996" stroke-miterlimit="22.926" stroke-linecap="round" stroke-linejoin="round"/>
<path d="M10.8481 10.8501C10.2417 10.8501 8.26807 8.6464 8.26807 6.95083C8.26807 5.54689 9.43396 4.34495 10.8481 4.35033C12.2622 4.34495 13.428 5.54689 13.428 6.95083C13.428 8.6464 11.4545 10.8501 10.8481 10.8501Z" stroke="white" stroke-width="0.859996" stroke-miterlimit="22.926" stroke-linecap="round" stroke-linejoin="round"/>
<path d="M10.8483 7.80957C11.322 7.80957 11.7083 7.42326 11.7083 6.94957C11.7083 6.47589 11.322 6.08958 10.8483 6.08958C10.3746 6.08958 9.98828 6.47589 9.98828 6.94957C9.98828 7.42326 10.3746 7.80957 10.8483 7.80957Z" stroke="white" stroke-width="0.859996" stroke-miterlimit="22.926" stroke-linecap="round" stroke-linejoin="round"/>
<path d="M5.22021 10.1047V10.105" stroke="white" stroke-width="0.859996" stroke-miterlimit="2.613" stroke-linecap="round" stroke-linejoin="round"/>
</g>
</g>
<defs>
<clipPath id="clip0_42_7836">
<rect width="22.0159" height="22.0159" fill="white"/>
</clipPath>
</defs>
</svg>
