<svg width="23" height="23" viewBox="0 0 23 23" fill="none" xmlns="http://www.w3.org/2000/svg">
<g clip-path="url(#clip0_42_3332)">
<path d="M20.0423 13.5537C20.2713 12.693 20.3735 11.7993 20.345 10.8979C20.3393 10.7169 20.1885 10.5738 20.0069 10.5805C19.8259 10.5863 19.6838 10.7376 19.6895 10.9186C19.6924 11.0096 19.6938 11.1018 19.6938 11.1927C19.6938 11.8918 19.6092 12.584 19.4419 13.2555C18.8874 13.0277 18.2806 12.9019 17.645 12.9019C15.0303 12.9019 12.9031 15.0292 12.9031 17.6439C12.9031 18.2795 13.0288 18.8863 13.2567 19.4407C12.5852 19.6081 11.8929 19.6927 11.1938 19.6927C9.92109 19.6927 8.70086 19.4196 7.56344 18.8808L9.28107 17.2103C9.67288 16.8293 9.46812 16.1639 8.92984 16.069L8.67953 16.0249C8.50109 15.9935 8.33109 16.1126 8.29966 16.291C8.26822 16.4693 8.38732 16.6394 8.56571 16.6708L8.81603 16.715C8.82832 16.7171 8.83278 16.7315 8.82377 16.7402L7.0789 18.4371C6.78027 18.7276 6.90221 19.091 6.90064 19.1288C6.90073 19.1295 6.90086 19.1302 6.90095 19.1309L7.27312 21.5129C7.27509 21.5255 7.26263 21.5342 7.25152 21.5284L5.05709 20.3629C4.86007 20.2582 4.62488 20.2582 4.42786 20.3629L2.23343 21.5284C2.22224 21.5343 2.20986 21.5255 2.21183 21.5129L2.6011 19.0215C2.63464 18.807 2.56171 18.5886 2.40605 18.4371L0.661225 16.7402C0.652261 16.7315 0.656677 16.7171 0.669007 16.715L3.12591 16.282C3.27593 16.2556 3.38301 16.1941 3.46805 16.109C3.59406 15.983 3.5387 16.0578 4.72934 13.765C4.73506 13.754 4.74989 13.7539 4.75566 13.765L5.88027 15.9306C5.97589 16.1147 6.15489 16.246 6.35908 16.282L7.0507 16.4039C7.22909 16.4354 7.39913 16.3162 7.43057 16.1379C7.462 15.9596 7.3429 15.7895 7.16455 15.758L6.47294 15.6361C6.46835 15.6353 6.4645 15.6325 6.46236 15.6283L5.33779 13.4628C5.08769 12.9811 4.39756 12.9809 4.14733 13.4628L3.47517 14.757C2.96243 13.646 2.69366 12.4258 2.69366 11.1927C2.69366 10.6168 2.75146 10.043 2.86558 9.48333H8.06342C8.84694 9.48333 9.48443 8.84585 9.48443 8.06232V6.39165C9.48443 6.21055 9.33761 6.06373 9.1565 6.06373C8.9754 6.06373 8.82858 6.21055 8.82858 6.39165V8.06232C8.82858 8.48421 8.48531 8.82748 8.06342 8.82748H1.42157C0.999687 8.82748 0.656415 8.48421 0.656415 8.06232V1.42048C0.656415 0.998591 0.999687 0.655319 1.42157 0.655319H8.06342C8.48531 0.655319 8.82858 0.998591 8.82858 1.42048V2.59366C8.82849 2.59799 8.82849 2.60232 8.82858 2.60665V4.86133C8.82858 5.04244 8.9754 5.18926 9.1565 5.18926C9.33761 5.18926 9.48443 5.04244 9.48443 4.86133V2.86449C10.0441 2.75032 10.6179 2.69257 11.1938 2.69257C12.5361 2.69257 13.8622 3.01083 15.0497 3.61552L13.0826 7.03316C12.5703 7.92315 13.2118 9.03478 14.24 9.03478H19.4176C19.4538 9.17355 19.4868 9.31373 19.5159 9.45369C19.5481 9.60851 19.6845 9.71494 19.8366 9.71494C19.8587 9.71494 19.8812 9.71271 19.9037 9.70798C20.0811 9.67113 20.1949 9.4975 20.158 9.32016C20.1382 9.22497 20.1168 9.12974 20.0938 9.03478H21.05C22.0769 9.03478 22.7204 7.92429 22.2075 7.03316L18.8025 1.11734C18.2893 0.22578 17.0017 0.224163 16.4876 1.11734L15.3772 3.04646C14.0901 2.38502 12.6507 2.03676 11.1938 2.03676C10.6187 2.03676 10.0455 2.09032 9.48443 2.19617V1.42052C9.48443 0.636999 8.84694 -0.000488281 8.06342 -0.000488281H1.42157C0.638051 -0.000488281 0.000564142 0.636999 0.000564142 1.42052V8.06237C0.000564142 8.84589 0.638051 9.48338 1.42157 9.48338H2.19723C2.09137 10.0445 2.03781 10.6177 2.03781 11.1927C2.03781 12.6879 2.40483 14.1656 3.10073 15.4782L3.02272 15.6283C3.02058 15.6325 3.01669 15.6353 3.0121 15.6362L0.555195 16.0691C0.0170041 16.164 -0.18784 16.8294 0.203965 17.2104L1.94879 18.9073C1.95225 18.9107 1.95386 18.9155 1.95312 18.9203L1.56385 21.4118C1.47863 21.9574 2.05333 22.3667 2.54111 22.1076L4.73554 20.9421C4.73992 20.9398 4.74512 20.9398 4.74945 20.9421L6.94388 22.1076C7.4303 22.366 8.00649 21.9582 7.92114 21.4118L7.64359 19.6353C8.76518 20.1089 9.9566 20.3487 11.1938 20.3487C11.995 20.3487 12.788 20.2453 13.5548 20.0412C14.3796 21.443 15.9042 22.3859 17.645 22.3859C20.2597 22.3859 22.3869 20.2587 22.3869 17.644C22.3869 15.9032 21.4441 14.3785 20.0423 13.5537ZM17.056 1.44448C17.3173 0.990546 17.9724 0.989934 18.234 1.44448L21.639 7.3603C21.8997 7.81323 21.5732 8.37892 21.05 8.37892H14.24C13.7175 8.37892 13.39 7.8138 13.651 7.3603L17.056 1.44448ZM17.645 21.73C15.3919 21.73 13.5589 19.897 13.5589 17.6439C13.5589 15.3908 15.3919 13.5578 17.645 13.5578C19.8981 13.5578 21.7311 15.3908 21.7311 17.6439C21.7311 19.897 19.8981 21.73 17.645 21.73Z" fill="white"/>
</g>
<defs>
<clipPath id="clip0_42_3332">
<rect width="22.3871" height="22.3871" fill="white"/>
</clipPath>
</defs>
</svg>
