<svg width="19" height="22" viewBox="0 0 19 22" fill="none" xmlns="http://www.w3.org/2000/svg">
<path d="M9.0393 13.6245C8.88921 13.6245 8.76758 13.5029 8.76758 13.3528V6.83325C8.76758 6.68311 8.88921 6.56152 9.0393 6.56152C9.18944 6.56152 9.31103 6.68316 9.31103 6.83325V13.3528C9.31103 13.5029 9.18939 13.6245 9.0393 13.6245Z" fill="white"/>
<path d="M13.9287 22.0002H4.14973C4.06422 22.0002 3.9836 21.9599 3.93232 21.8914C2.03778 19.3645 0.951172 15.6149 0.951172 11.6041C0.951172 7.59329 2.03778 3.84366 3.93232 1.31674C3.98365 1.24824 4.06422 1.20801 4.14973 1.20801H13.9286C14.0141 1.20801 14.0948 1.24824 14.146 1.31674C16.0406 3.84366 17.1272 7.59329 17.1272 11.6041C17.1272 15.6149 16.0406 19.3645 14.146 21.8914C14.0948 21.9599 14.0142 22.0002 13.9287 22.0002ZM4.28676 21.4567H13.7916C15.5675 19.0232 16.5837 15.4423 16.5837 11.6041C16.5837 7.76587 15.5674 4.185 13.7916 1.75151H4.28676C2.51092 4.185 1.49467 7.76587 1.49467 11.6041C1.49467 15.4423 2.51092 19.0232 4.28676 21.4567Z" fill="white"/>
<path d="M12.6791 4.89227H5.39925C5.31726 4.89227 5.23958 4.85522 5.188 4.79151C5.13642 4.72771 5.11633 4.64416 5.13339 4.56394C5.39162 3.35193 5.71233 2.27931 6.08658 1.3757C6.12862 1.27415 6.22777 1.20801 6.33762 1.20801H11.7406C11.8504 1.20801 11.9496 1.27415 11.9916 1.3757C12.3659 2.27926 12.6866 3.35193 12.9448 4.56394C12.9619 4.64416 12.9418 4.72776 12.8902 4.79151C12.8388 4.85522 12.7611 4.89227 12.6791 4.89227ZM5.73731 4.34883H12.341C12.1199 3.37667 11.8569 2.50513 11.5576 1.75151H6.52071C6.22136 2.50508 5.95844 3.37667 5.73731 4.34883Z" fill="white"/>
<path d="M13.0545 16.6463H5.02352C4.88712 16.6463 4.77194 16.5453 4.75409 16.41C4.55154 14.8719 4.44873 13.255 4.44873 11.604C4.44873 9.95304 4.5515 8.33595 4.75409 6.7978C4.77194 6.66258 4.88712 6.56152 5.02352 6.56152H13.0545C13.1909 6.56152 13.3061 6.66253 13.324 6.7978C13.5265 8.33599 13.6293 9.95304 13.6293 11.604C13.6293 13.255 13.5266 14.8719 13.324 16.41C13.3061 16.5453 13.1909 16.6463 13.0545 16.6463ZM5.26268 16.1029H12.8153C12.9949 14.6592 13.0858 13.147 13.0858 11.604C13.0858 10.061 12.9949 8.54881 12.8153 7.10502H5.26268C5.08311 8.54881 4.99218 10.061 4.99218 11.604C4.99218 13.1469 5.08311 14.6591 5.26268 16.1029Z" fill="white"/>
<path d="M11.7406 22.0001H6.33763C6.22777 22.0001 6.12863 21.9339 6.08658 21.8324C5.71234 20.929 5.39158 19.8564 5.13339 18.6443C5.11633 18.564 5.13638 18.4804 5.188 18.4167C5.23958 18.353 5.31722 18.3159 5.39925 18.3159H12.6791C12.7611 18.3159 12.8388 18.353 12.8903 18.4167C12.9419 18.4805 12.962 18.564 12.9449 18.6443C12.6867 19.8564 12.366 20.929 11.9917 21.8324C11.9496 21.934 11.8505 22.0001 11.7406 22.0001ZM6.52067 21.4566H11.5576C11.8569 20.7031 12.1198 19.8316 12.341 18.8594H5.73727C5.95839 19.8316 6.22132 20.7031 6.52067 21.4566Z" fill="white"/>
<path d="M16.3071 7.10489H1.77173C1.68857 7.10489 1.61 7.06686 1.55847 7.00159C1.50689 6.93627 1.48812 6.85106 1.50743 6.7702C1.69653 5.97663 1.9289 5.22042 2.19804 4.52263C2.23842 4.41776 2.33918 4.34863 2.45157 4.34863H15.6274C15.7397 4.34863 15.8405 4.41776 15.8809 4.52263C16.15 5.22042 16.3824 5.97663 16.5715 6.7702C16.5908 6.85106 16.572 6.93632 16.5204 7.00159C16.4688 7.06686 16.3902 7.10489 16.3071 7.10489ZM2.11908 6.56144H15.9597C15.8094 5.97815 15.6351 5.41866 15.4396 4.89208H2.63921C2.4437 5.41866 2.26937 5.97815 2.11908 6.56144Z" fill="white"/>
<path d="M15.6268 18.8594H2.45109C2.33874 18.8594 2.23798 18.7902 2.19755 18.6854C1.92846 17.9874 1.6961 17.2312 1.50694 16.4377C1.48763 16.3569 1.50641 16.2716 1.55798 16.2063C1.60956 16.1411 1.68808 16.103 1.77124 16.103H16.3066C16.3898 16.103 16.4683 16.1411 16.5198 16.2063C16.5714 16.2716 16.5902 16.3569 16.5709 16.4377C16.3818 17.2306 16.1496 17.9869 15.8803 18.6854C15.84 18.7902 15.7392 18.8594 15.6268 18.8594ZM2.63877 18.3159H15.4392C15.6348 17.789 15.809 17.2294 15.9593 16.6465H2.11864C2.26893 17.2298 2.44326 17.7894 2.63877 18.3159Z" fill="white"/>
<path d="M9.0393 4.89227C8.88921 4.89227 8.76758 4.77064 8.76758 4.62055V1.47973C8.76758 1.32964 8.88921 1.20801 9.0393 1.20801C9.18944 1.20801 9.31103 1.32964 9.31103 1.47973V4.62055C9.31103 4.77064 9.18939 4.89227 9.0393 4.89227Z" fill="white"/>
<path d="M9.0393 22.0002C8.88921 22.0002 8.76758 21.8785 8.76758 21.7285V18.5876C8.76758 18.4375 8.88921 18.3159 9.0393 18.3159C9.18944 18.3159 9.31103 18.4376 9.31103 18.5876V21.7285C9.31103 21.8785 9.18939 22.0002 9.0393 22.0002Z" fill="white"/>
<path d="M9.03893 16.6462C8.05602 16.6462 7.25635 15.8466 7.25635 14.8637C7.25635 13.8808 8.05597 13.0811 9.03893 13.0811C10.0218 13.0811 10.8216 13.8808 10.8216 14.8637C10.8216 15.8466 10.0218 16.6462 9.03893 16.6462ZM9.03893 13.6245C8.35571 13.6245 7.79985 14.1804 7.79985 14.8637C7.79985 15.5469 8.35571 16.1028 9.03893 16.1028C9.72225 16.1028 10.2781 15.5469 10.2781 14.8637C10.2781 14.1804 9.72225 13.6245 9.03893 13.6245Z" fill="white"/>
<path d="M17.8064 22H0.271724C0.121587 22 0 21.8784 0 21.7283C0 21.5782 0.121635 21.4565 0.271724 21.4565H17.8065C17.9565 21.4565 18.0782 21.5782 18.0782 21.7283C18.0782 21.8784 17.9565 22 17.8064 22Z" fill="white"/>
<path d="M13.9286 1.75135H4.14965C3.99952 1.75135 3.87793 1.62971 3.87793 1.47962V0.271724C3.87793 0.121636 3.99957 0 4.14965 0H13.9286C14.0786 0 14.2003 0.121636 14.2003 0.271724V1.47957C14.2003 1.62971 14.0787 1.75135 13.9286 1.75135ZM4.42143 1.20785H13.6568V0.543449H4.42143V1.20785Z" fill="white"/>
</svg>
