<svg width="30" height="30" viewBox="0 0 30 30" fill="none" xmlns="http://www.w3.org/2000/svg">
<rect x="0.67022" y="0.340142" width="28.449" height="28.449" rx="14.2245" fill="white"/>
<rect x="0.67022" y="0.340142" width="28.449" height="28.449" rx="14.2245" stroke="black" stroke-width="0.65956"/>
<path d="M9.06779 24.6691C8.39946 24.6691 7.73902 24.5007 7.13778 24.1692C6.19974 23.6522 5.51825 22.801 5.22092 21.7721C4.92359 20.7433 5.04331 19.6593 5.56035 18.7212L10.119 10.4473C10.636 9.50794 11.4872 8.82777 12.516 8.52912C13.5448 8.23048 14.6289 8.35151 15.5669 8.86855C16.505 9.38559 17.1865 10.2368 17.4838 11.2656C17.7824 12.2957 17.6614 13.3798 17.1444 14.3178L12.5871 22.5918C12.07 23.5298 11.2188 24.2113 10.19 24.5086C9.81901 24.6165 9.44274 24.6691 9.06779 24.6691ZM13.6369 9.00274C12.4437 9.00274 11.2859 9.63424 10.6715 10.7512L6.11291 19.0251C5.21434 20.6578 5.81032 22.7168 7.44169 23.6153C7.95741 23.8995 8.51655 24.0337 9.06648 24.0337C10.2597 24.0337 11.4175 23.4022 12.0319 22.2852L16.5918 14.0126C17.4904 12.3799 16.8944 10.321 15.263 9.42243C14.7473 9.13825 14.1882 9.00274 13.6369 9.00274Z" fill="black"/>
<path d="M7.95065 23.0096C7.89934 23.0096 7.84671 22.9964 7.79803 22.9701C6.5232 22.2676 6.05615 20.6586 6.7587 19.3824L7.67305 17.7221C7.75725 17.5695 7.94933 17.5143 8.10194 17.5985C8.25455 17.6827 8.30981 17.8747 8.22561 18.0273L7.31125 19.6877C6.77711 20.6586 7.13102 21.8821 8.10194 22.4176C8.25455 22.5018 8.30981 22.6938 8.22561 22.8465C8.17035 22.9504 8.06247 23.0096 7.95065 23.0096Z" fill="black"/>
<path d="M14.5893 18.618C14.538 18.618 14.4853 18.6048 14.4367 18.5785L7.96382 15.0119C7.81121 14.9277 7.75596 14.7356 7.84015 14.583C7.92435 14.4304 8.11643 14.3751 8.26905 14.4593L14.7419 18.0259C14.8945 18.1101 14.9498 18.3022 14.8656 18.4548C14.8077 18.5588 14.6998 18.618 14.5893 18.618Z" fill="black"/>
<path d="M20.7152 21.207C20.1968 21.207 19.6798 21.1057 19.1865 20.9017C18.1958 20.4939 17.4235 19.7229 17.0117 18.7349L15.7698 15.7511C15.7027 15.5906 15.779 15.4051 15.9395 15.338C16.1 15.2709 16.2855 15.3472 16.3526 15.5077L17.5946 18.4915C18.3116 20.2124 20.2929 21.0307 22.0137 20.3137C23.7345 19.598 24.5515 17.6166 23.8359 15.8958L22.0216 11.5345L20.2074 7.17457C19.6811 5.90895 18.455 5.09195 17.0854 5.09195C16.6394 5.09195 16.2039 5.18009 15.7882 5.35244C14.4594 5.905 13.6253 7.24035 13.7122 8.67569C13.7227 8.84935 13.5898 8.99933 13.4162 9.00986C13.2425 9.02038 13.0925 8.88751 13.082 8.71384C12.9794 7.01012 13.97 5.4248 15.5461 4.76962C16.0382 4.56438 16.5565 4.46045 17.0854 4.46045C17.8682 4.46045 18.6286 4.68805 19.2864 5.11826C19.96 5.55899 20.4797 6.18654 20.7902 6.9325L22.6044 11.2925L24.4187 15.6537C24.8305 16.6431 24.8318 17.7337 24.4239 18.7231C24.0161 19.7124 23.2451 20.486 22.2571 20.8978C21.7598 21.1043 21.2375 21.207 20.7152 21.207Z" fill="black"/>
<path d="M20.7186 19.8358C19.6832 19.8358 18.6991 19.2227 18.2768 18.2097L17.5493 16.4599C17.4822 16.2994 17.5585 16.1139 17.719 16.0468C17.8795 15.9797 18.065 16.056 18.1321 16.2165L18.8596 17.9663C19.2859 18.9899 20.4634 19.4753 21.4869 19.0491C21.6474 18.982 21.8329 19.0583 21.9 19.2188C21.9671 19.3793 21.8908 19.5648 21.7303 19.6319C21.3988 19.77 21.0554 19.8358 20.7186 19.8358Z" fill="black"/>
<path d="M17.1323 13.8858C17.0087 13.8858 16.8916 13.8121 16.8403 13.6911C16.7732 13.5306 16.8495 13.3451 17.01 13.278L22.1909 11.123C22.3514 11.0559 22.5369 11.1322 22.604 11.2927C22.6711 11.4532 22.5948 11.6387 22.4343 11.7058L17.2534 13.8608C17.2139 13.8779 17.1731 13.8858 17.1323 13.8858Z" fill="black"/>
</svg>
