<svg width="30" height="30" viewBox="0 0 30 30" fill="none" xmlns="http://www.w3.org/2000/svg">
<rect x="0.67022" y="1.18194" width="28.449" height="28.449" rx="14.2245" fill="white"/>
<rect x="0.67022" y="1.18194" width="28.449" height="28.449" rx="14.2245" stroke="black" stroke-width="0.65956"/>
<g clip-path="url(#clip0_8_4009)">
<path d="M19.4961 24.0891H19.125C18.8529 24.0891 18.6055 24.3118 18.6055 24.6086C18.6055 24.9055 18.8281 25.1282 19.125 25.1282H19.4961C19.7682 25.1282 20.0156 24.9055 20.0156 24.6086C20.0156 24.3118 19.7682 24.0891 19.4961 24.0891Z" fill="black"/>
<path d="M25.5076 24.0886H24.9881L16.7251 14.2917C15.7602 13.3269 14.1769 13.3269 13.1873 14.2917L4.92431 24.0886H4.33057C4.05843 24.0886 3.81104 24.3113 3.81104 24.6081C3.81104 24.905 4.03369 25.1277 4.33057 25.1277H16.9477C17.2199 25.1277 17.4673 24.905 17.4673 24.6081C17.4673 24.3113 17.2446 24.0886 16.9477 24.0886H6.26025L13.9295 15.0092C14.4985 14.4649 15.4139 14.4649 15.9829 15.0092L23.6522 24.0886H21.4256C21.1535 24.0886 20.9061 24.3113 20.9061 24.6081C20.9061 24.905 21.1287 25.1277 21.4256 25.1277H25.5324C25.8045 25.1277 26.0519 24.905 26.0519 24.6081C26.0519 24.3113 25.7798 24.0886 25.5076 24.0886Z" fill="black"/>
<path d="M12.272 19.0166C11.9998 19.0166 11.7524 19.2393 11.7524 19.5361C11.7524 19.8083 11.9751 20.0557 12.272 20.0557C12.5441 20.0557 12.7915 19.833 12.7915 19.5361C12.7915 19.2393 12.5688 19.0166 12.272 19.0166Z" fill="black"/>
<path d="M15.9087 20.031C16.1808 20.031 16.4282 19.8083 16.4282 19.5115C16.4282 19.2393 16.2056 18.9919 15.9087 18.9919C15.6366 18.9919 15.3892 19.2146 15.3892 19.5115C15.3892 19.8083 15.6118 20.031 15.9087 20.031Z" fill="black"/>
<path d="M14.1025 20.031C14.3747 20.031 14.6221 19.8083 14.6221 19.5115C14.6221 19.2393 14.3994 18.9919 14.1025 18.9919C13.8304 18.9919 13.583 19.2146 13.583 19.5115C13.583 19.8083 13.8057 20.031 14.1025 20.031Z" fill="black"/>
<path d="M14.9932 18.4978C15.2653 18.4978 15.5127 18.2751 15.5127 17.9783C15.5127 17.7061 15.29 17.4587 14.9932 17.4587C14.721 17.4587 14.4736 17.6814 14.4736 17.9783C14.4736 18.2751 14.721 18.4978 14.9932 18.4978Z" fill="black"/>
<path d="M16.7993 18.4978C17.0715 18.4978 17.3188 18.2751 17.3188 17.9783C17.3188 17.7061 17.0962 17.4587 16.7993 17.4587C16.5272 17.4587 16.2798 17.6814 16.2798 17.9783C16.2798 18.2751 16.5272 18.4978 16.7993 18.4978Z" fill="black"/>
<path d="M13.979 17.4836C13.979 17.2115 13.7563 16.9641 13.4595 16.9641C13.1626 16.9641 12.9399 17.1868 12.9399 17.4836C12.9399 17.7558 13.1626 18.0032 13.4595 18.0032C13.7316 17.9784 13.979 17.7558 13.979 17.4836Z" fill="black"/>
<path d="M14.5479 16.7166C14.82 16.7166 15.0674 16.4939 15.0674 16.197C15.0674 15.9249 14.8447 15.6775 14.5479 15.6775C14.2757 15.6775 14.0283 15.9001 14.0283 16.197C14.0283 16.4692 14.251 16.7166 14.5479 16.7166Z" fill="black"/>
<path d="M18.9023 19.7842C18.9023 19.512 18.6797 19.2646 18.3828 19.2646C18.1107 19.2646 17.8633 19.4873 17.8633 19.7842C17.8633 20.0563 18.0859 20.3037 18.3828 20.3037C18.6549 20.3037 18.9023 20.0563 18.9023 19.7842Z" fill="black"/>
<path d="M10.2187 21.3186C9.94661 21.3186 9.69922 21.5413 9.69922 21.8381C9.69922 22.1103 9.92187 22.3577 10.2187 22.3577C10.4909 22.3577 10.7383 22.135 10.7383 21.8381C10.7383 21.5413 10.5156 21.3186 10.2187 21.3186Z" fill="black"/>
<path d="M15.958 11.3235C16.2301 11.3235 16.4775 11.1008 16.4775 10.804C16.4775 10.5071 16.2549 10.2844 15.958 10.2844C15.6859 10.2844 15.4385 10.5071 15.4385 10.804C15.4385 11.1008 15.6859 11.3235 15.958 11.3235Z" fill="black"/>
<path d="M14.9438 7.29101C15.216 7.29101 15.4634 7.06836 15.4634 6.77148C15.4634 6.49935 15.2407 6.25195 14.9438 6.25195C14.6717 6.25195 14.4243 6.47461 14.4243 6.77148C14.4243 7.06836 14.6717 7.29101 14.9438 7.29101Z" fill="black"/>
<path d="M14.2759 10.7549C14.548 10.7549 14.7954 10.5322 14.7954 10.2354C14.7954 9.96322 14.5728 9.71582 14.2759 9.71582C13.979 9.71582 13.7563 9.93848 13.7563 10.2354C13.7563 10.5322 13.979 10.7549 14.2759 10.7549Z" fill="black"/>
<path d="M14.2759 12.5608C14.548 12.5608 14.7954 12.3381 14.7954 12.0413C14.7954 11.7691 14.5728 11.5217 14.2759 11.5217C13.979 11.5217 13.7563 11.7444 13.7563 12.0413C13.7563 12.3134 13.979 12.5608 14.2759 12.5608Z" fill="black"/>
</g>
<defs>
<clipPath id="clip0_8_4009">
<rect width="22.513" height="22.513" fill="white" transform="translate(3.63818 4.1499)"/>
</clipPath>
</defs>
</svg>
