<svg width="30" height="30" viewBox="0 0 30 30" fill="none" xmlns="http://www.w3.org/2000/svg">
<rect x="0.67022" y="0.497857" width="28.449" height="28.449" rx="14.2245" fill="white"/>
<rect x="0.67022" y="0.497857" width="28.449" height="28.449" rx="14.2245" stroke="black" stroke-width="0.65956"/>
<g clip-path="url(#clip0_8_4033)">
<g clip-path="url(#clip1_8_4033)">
<path d="M17.3307 13.4558L17.1622 12.9131C16.8515 11.8959 16.6302 10.8454 16.5045 9.7908L15.8975 4.69276H16.0899V3.9664C16.0899 3.67748 15.8548 3.44238 15.566 3.44238H13.96C13.6711 3.44238 13.436 3.67748 13.436 3.9664V4.69276H13.6295L13.0329 9.76048C12.9058 10.8372 12.68 11.9072 12.3615 12.9417L12.2056 13.4563C11.6662 15.2088 11.3926 17.0245 11.3926 18.8531V23.7656C11.3926 24.9714 12.3736 25.9524 13.5794 25.9524H15.9464C17.1523 25.9524 18.1332 24.9714 18.1332 23.7656V18.835C18.1333 17.0074 17.8634 15.1979 17.3307 13.4558ZM13.8607 3.9664C13.8607 3.91167 13.9053 3.86712 13.96 3.86712H15.5659C15.6206 3.86712 15.6651 3.91167 15.6651 3.9664V4.26802H13.8607V3.9664ZM15.4698 4.69276L15.8805 8.14249H13.6511L14.0572 4.69276H15.4698ZM17.7086 23.7656C17.7086 24.7372 16.9181 25.5276 15.9465 25.5276H13.5794C12.6078 25.5276 11.8173 24.7372 11.8173 23.7656V18.8531C11.8173 17.0669 12.0846 15.2932 12.612 13.5803L12.7678 13.0657C13.0936 12.0077 13.3247 10.9124 13.4547 9.81018L13.6011 8.56718H15.9311L16.0828 9.84102C16.2115 10.9206 16.4379 11.9959 16.7563 13.0381L16.9249 13.5809C17.4449 15.2818 17.7086 17.0495 17.7086 18.8349V23.7656H17.7086Z" fill="black"/>
<path d="M16.5066 13.8299L16.3473 13.2845C16.1265 12.515 15.6917 10.5789 15.6379 9.37719C15.6327 9.25996 15.5329 9.16923 15.4162 9.17454C15.2991 9.17979 15.2083 9.27902 15.2136 9.3962C15.269 10.6333 15.7134 12.6154 15.9393 13.4026L16.0986 13.9482C16.5897 15.6578 16.8233 17.4297 16.793 19.2184V23.5624C16.793 23.6796 16.8881 23.7747 17.0054 23.7747C17.1226 23.7747 17.2177 23.6796 17.2177 23.5624L17.2177 19.222C17.2487 17.3947 17.0096 15.5809 16.5066 13.8299Z" fill="black"/>
<path d="M14.9488 6.14409L15.1083 7.7091C15.1194 7.81847 15.2117 7.89997 15.3193 7.89997C15.3265 7.89997 15.3338 7.89959 15.3411 7.89885C15.4578 7.88696 15.5427 7.78274 15.5308 7.66604L15.3714 6.10104C15.3595 5.98434 15.2551 5.89929 15.1386 5.91128C15.022 5.92318 14.9371 6.0274 14.9488 6.14409Z" fill="black"/>
</g>
</g>
<defs>
<clipPath id="clip0_8_4033">
<rect width="22.513" height="22.513" fill="white" transform="translate(3.63818 3.46582)"/>
</clipPath>
<clipPath id="clip1_8_4033">
<rect width="22.5622" height="22.51" fill="white" transform="translate(3.48193 3.44238)"/>
</clipPath>
</defs>
</svg>
