<svg width="30" height="30" viewBox="0 0 30 30" fill="none" xmlns="http://www.w3.org/2000/svg">
<rect x="0.67022" y="0.918755" width="28.449" height="28.449" rx="14.2245" fill="white"/>
<rect x="0.67022" y="0.918755" width="28.449" height="28.449" rx="14.2245" stroke="black" stroke-width="0.65956"/>
<path d="M22.1018 15.9081H14.9889L14.6797 14.0749C15.12 13.6992 15.4095 13.177 15.4949 12.6046C15.716 11.2037 15.378 9.28703 14.7412 8.33207C14.7372 8.32596 14.7308 8.3229 14.7262 8.31709C14.2044 7.55086 12.6052 7.0376 10.6314 7.0376C8.65757 7.0376 7.05844 7.55086 6.53569 8.31525C6.53141 8.32106 6.52468 8.32443 6.5207 8.33055C5.88386 9.2855 5.54587 11.2021 5.76794 12.6046C5.85322 13.1777 6.14311 13.7005 6.58402 14.0765L6.09461 16.9741C6.06953 17.0612 6.05445 17.1509 6.04965 17.2414L6.04445 17.272C6.04414 17.2782 6.04414 17.2844 6.04445 17.2906C6.04445 17.302 6.04231 17.3133 6.04231 17.3212C6.04231 17.3469 6.04812 17.3717 6.04996 17.3974V17.4026C6.13499 18.6304 8.11463 19.5786 10.6314 19.5786C10.84 19.5786 11.0437 19.57 11.2432 19.5572V19.5786C11.2432 21.6369 12.1164 23.2491 13.2314 23.2491H22.1018C23.2168 23.2491 24.09 21.6369 24.09 19.5786C24.09 17.5204 23.2168 15.9081 22.1018 15.9081ZM8.3783 7.93382L8.96467 8.22869C9.03719 8.26515 9.12123 8.27129 9.19828 8.24576C9.27532 8.22023 9.33907 8.16512 9.37547 8.09257C9.43362 7.97447 9.4089 7.83234 9.31429 7.74081C10.1879 7.61887 11.0743 7.61887 11.9479 7.74081C11.8533 7.83234 11.8286 7.97447 11.8867 8.09257C11.9231 8.16512 11.9869 8.22023 12.0639 8.24576C12.141 8.27129 12.225 8.26515 12.2975 8.22869L12.8839 7.93382C13.6538 8.15008 14.1686 8.45993 14.279 8.75969L14.3019 8.89306C14.2836 9.15152 13.9159 9.45679 13.2668 9.69537L12.2981 9.21086C12.1469 9.13535 11.9632 9.1967 11.8876 9.3479C11.8121 9.49909 11.8735 9.68287 12.0247 9.75839L12.381 9.93641C11.8043 10.0461 11.2184 10.0996 10.6314 10.0964C10.0446 10.0996 9.45887 10.046 8.88239 9.93641L9.23874 9.75839C9.33654 9.70954 9.40086 9.61222 9.40746 9.5031C9.41406 9.39397 9.36194 9.28961 9.27073 9.22933C9.17952 9.16906 9.06309 9.16202 8.96528 9.21086L7.99657 9.69537C7.34749 9.45679 6.97983 9.15152 6.96086 8.89306L6.98258 8.76061C7.09422 8.45993 7.60841 8.15008 8.3783 7.93382ZM6.37082 12.5079C6.24499 11.5166 6.33334 10.5098 6.6299 9.55559C6.9764 9.90312 7.40519 10.1573 7.87636 10.2946C7.90326 10.3089 7.93211 10.3192 7.962 10.3252C8.82729 10.5872 9.72735 10.7163 10.6314 10.7081C11.5355 10.7161 12.4356 10.5865 13.3008 10.324C13.3307 10.318 13.3595 10.3077 13.3864 10.2934C13.8576 10.1561 14.2864 9.9019 14.6329 9.55436C14.9295 10.5086 15.0178 11.5154 14.892 12.5067C14.6277 14.1805 12.4294 14.5316 10.6314 14.5316C8.83345 14.5316 6.6351 14.1805 6.37082 12.5079ZM10.6314 18.9669C8.30397 18.9669 6.67701 18.1104 6.65498 17.3347C6.65498 17.331 6.65498 17.3273 6.65498 17.3234L7.13797 14.4594C7.96078 14.91 9.1326 15.1434 10.6314 15.1434C12.1302 15.1434 13.302 14.91 14.1239 14.4594L14.3686 15.9081H13.2314C12.2348 15.9081 11.4331 17.198 11.2737 18.9418C11.0648 18.9568 10.8516 18.9669 10.6314 18.9669ZM11.8549 19.5786C11.8549 17.7761 12.5802 16.5198 13.2314 16.5198H20.9891C20.4577 17.172 20.1136 18.2872 20.1136 19.5786C20.1136 20.87 20.4577 21.9853 20.9891 22.6374H13.2314C12.5802 22.6374 11.8549 21.3812 11.8549 19.5786ZM22.1018 22.6374C21.4506 22.6374 20.7254 21.3812 20.7254 19.5786C20.7254 17.7761 21.4506 16.5198 22.1018 16.5198C22.7531 16.5198 23.4783 17.7761 23.4783 19.5786C23.4783 21.3812 22.7531 22.6374 22.1018 22.6374Z" fill="black"/>
<path d="M14.6076 18.0483H16.137C16.306 18.0483 16.4429 17.9113 16.4429 17.7424C16.4429 17.5735 16.306 17.4365 16.137 17.4365H14.6076C14.4387 17.4365 14.3018 17.5735 14.3018 17.7424C14.3018 17.9113 14.4387 18.0483 14.6076 18.0483Z" fill="black"/>
<path d="M14.3021 19.2719C14.471 19.2719 14.6079 19.135 14.6079 18.966C14.6079 18.7971 14.471 18.6602 14.3021 18.6602H12.7727C12.6037 18.6602 12.4668 18.7971 12.4668 18.966C12.4668 19.135 12.6037 19.2719 12.7727 19.2719H14.3021Z" fill="black"/>
<path d="M15.8314 19.8843H14.302C14.133 19.8843 13.9961 20.0212 13.9961 20.1902C13.9961 20.3591 14.133 20.496 14.302 20.496H15.8314C16.0003 20.496 16.1372 20.3591 16.1372 20.1902C16.1372 20.0212 16.0003 19.8843 15.8314 19.8843Z" fill="black"/>
<path d="M14.9136 21.4138C14.9136 21.2449 14.7767 21.1079 14.6077 21.1079H13.0783C12.9094 21.1079 12.7725 21.2449 12.7725 21.4138C12.7725 21.5827 12.9094 21.7197 13.0783 21.7197H14.6077C14.7767 21.7197 14.9136 21.5827 14.9136 21.4138Z" fill="black"/>
<path d="M17.9724 18.0483H19.5018C19.6707 18.0483 19.8077 17.9113 19.8077 17.7424C19.8077 17.5735 19.6707 17.4365 19.5018 17.4365H17.9724C17.8035 17.4365 17.6665 17.5735 17.6665 17.7424C17.6665 17.9113 17.8035 18.0483 17.9724 18.0483Z" fill="black"/>
<path d="M15.8315 18.966C15.8315 19.135 15.9685 19.2719 16.1374 19.2719H17.6668C17.8357 19.2719 17.9727 19.135 17.9727 18.966C17.9727 18.7971 17.8357 18.6602 17.6668 18.6602H16.1374C15.9685 18.6602 15.8315 18.7971 15.8315 18.966Z" fill="black"/>
<path d="M19.1961 19.8843H17.6667C17.4978 19.8843 17.3608 20.0212 17.3608 20.1902C17.3608 20.3591 17.4978 20.496 17.6667 20.496H19.1961C19.365 20.496 19.502 20.3591 19.502 20.1902C19.502 20.0212 19.365 19.8843 19.1961 19.8843Z" fill="black"/>
<path d="M17.9725 21.1079H16.4431C16.2742 21.1079 16.1372 21.2449 16.1372 21.4138C16.1372 21.5827 16.2742 21.7197 16.4431 21.7197H17.9725C18.1414 21.7197 18.2784 21.5827 18.2784 21.4138C18.2784 21.2449 18.1414 21.1079 17.9725 21.1079Z" fill="black"/>
<path d="M21.6428 17.7427C21.4739 17.7427 21.3369 17.8796 21.3369 18.0486V19.2721C21.3369 19.441 21.4739 19.5779 21.6428 19.5779C21.8117 19.5779 21.9487 19.441 21.9487 19.2721V18.0486C21.9487 17.8796 21.8117 17.7427 21.6428 17.7427Z" fill="black"/>
<path d="M22.2549 19.8835V21.107C22.2549 21.276 22.3918 21.4129 22.5608 21.4129C22.7297 21.4129 22.8666 21.276 22.8666 21.107V19.8835C22.8666 19.7146 22.7297 19.5776 22.5608 19.5776C22.3918 19.5776 22.2549 19.7146 22.2549 19.8835Z" fill="black"/>
<path d="M8.42917 13.4533C8.44929 13.4575 8.46979 13.4596 8.49034 13.4595C8.64749 13.4596 8.77919 13.3407 8.79498 13.1843C8.81077 13.028 8.70552 12.8851 8.55152 12.8538C8.20796 12.8147 7.89512 12.6375 7.68497 12.3629C7.56519 12.1626 7.52266 11.9255 7.56537 11.6961C7.60456 11.5325 7.50434 11.368 7.34102 11.3278C7.17769 11.2876 7.01256 11.3868 6.97135 11.5499C6.88989 11.9387 6.95886 12.344 7.16436 12.6841C7.45984 13.1061 7.91854 13.3851 8.42917 13.4533Z" fill="black"/>
</svg>
