<svg width="59" height="58" viewBox="0 0 59 58" fill="none" xmlns="http://www.w3.org/2000/svg">
<g filter="url(#filter0_d_42_4016)">
<circle cx="29.5978" cy="23.9024" r="23.9024" fill="black"/>
<circle cx="29.5978" cy="23.9024" r="23.3049" stroke="black" stroke-width="1.19512"/>
</g>
<path d="M22.3731 28.9512V21.7207L20.7537 22.7067V21.3143L22.3731 20.3463H23.6459V28.9512H22.3731ZM28.4667 29.1304C28.0245 29.1304 27.6122 29.0408 27.2298 28.8615C26.8513 28.6783 26.5266 28.4273 26.2557 28.1086C25.9848 27.7859 25.7916 27.4154 25.6761 26.9971L26.8772 26.6745C26.9449 26.9294 27.0605 27.1505 27.2238 27.3378C27.3911 27.525 27.5863 27.6704 27.8094 27.774C28.0325 27.8736 28.2635 27.9234 28.5026 27.9234C28.8173 27.9234 29.1021 27.8477 29.3571 27.6963C29.616 27.5449 29.8192 27.3417 29.9666 27.0868C30.118 26.8318 30.1937 26.551 30.1937 26.2442C30.1937 25.9295 30.116 25.6447 29.9606 25.3897C29.8092 25.1347 29.6041 24.9336 29.3451 24.7862C29.0902 24.6348 28.8093 24.5591 28.5026 24.5591C28.152 24.5591 27.8552 24.6288 27.6122 24.7682C27.3692 24.9077 27.18 25.069 27.0445 25.2523L25.957 24.8698L26.2199 20.3463H30.8629V21.5235H26.8593L27.3672 21.0514L27.1581 24.4396L26.9131 24.1229C27.1401 23.8958 27.411 23.7225 27.7257 23.603C28.0405 23.4835 28.3532 23.4237 28.6639 23.4237C29.1977 23.4237 29.6738 23.5472 30.0921 23.7942C30.5144 24.0412 30.847 24.3778 31.09 24.8041C31.333 25.2264 31.4545 25.7064 31.4545 26.2442C31.4545 26.778 31.3171 27.2641 31.0422 27.7023C30.7673 28.1365 30.4028 28.4831 29.9487 28.742C29.4945 29.001 29.0005 29.1304 28.4667 29.1304ZM32.8828 28.9512V20.3463H34.1317V24.3619L37.735 20.3463H39.2886L35.4822 24.5471L39.5695 28.9512H37.968L34.1317 24.84V28.9512H32.8828Z" fill="white"/>
<defs>
<filter id="filter0_d_42_4016" x="0.914824" y="0" width="57.3657" height="57.3657" filterUnits="userSpaceOnUse" color-interpolation-filters="sRGB">
<feFlood flood-opacity="0" result="BackgroundImageFix"/>
<feColorMatrix in="SourceAlpha" type="matrix" values="0 0 0 0 0 0 0 0 0 0 0 0 0 0 0 0 0 0 127 0" result="hardAlpha"/>
<feOffset dy="4.78049"/>
<feGaussianBlur stdDeviation="2.39024"/>
<feComposite in2="hardAlpha" operator="out"/>
<feColorMatrix type="matrix" values="0 0 0 0 0 0 0 0 0 0 0 0 0 0 0 0 0 0 0.08 0"/>
<feBlend mode="normal" in2="BackgroundImageFix" result="effect1_dropShadow_42_4016"/>
<feBlend mode="normal" in="SourceGraphic" in2="effect1_dropShadow_42_4016" result="shape"/>
</filter>
</defs>
</svg>
