<svg width="6" height="18" viewBox="0 0 6 18" fill="none" xmlns="http://www.w3.org/2000/svg">
<path d="M0.981445 7.80469C0.981445 6.70012 1.87688 5.80469 2.98145 5.80469H3.98145C5.08601 5.80469 5.98145 6.70012 5.98145 7.80469V15.8047C5.98145 16.357 5.53373 16.8047 4.98145 16.8047H1.98145C1.42916 16.8047 0.981445 16.357 0.981445 15.8047V7.80469Z" fill="#9A1212"/>
<path d="M4.46715 5.2838V1.03131H4.45382C4.45382 0.898002 4.34717 0.804688 4.2272 0.804688H2.74749C2.61418 0.804688 2.52087 0.911333 2.52087 1.03131V5.29713C1.05449 5.8037 0.947845 7.40338 0.987837 7.72332V14.0021V14.0154V14.0287V15.975C0.987837 16.7482 1.61438 17.3747 2.38756 17.3747H4.60046C5.37364 17.3747 6.00018 16.7482 6.00018 15.975V7.70999C6.04017 7.39005 5.93353 5.79037 4.46715 5.2838ZM2.97411 1.25793H3.98724V1.88447H2.97411V1.25793ZM4.58713 16.9082H2.37423C2.02763 16.9082 1.72103 16.7082 1.56106 16.4283H5.4003C5.24033 16.7082 4.93372 16.9082 4.58713 16.9082ZM5.52028 15.9617H1.44108V14.242H5.52028V15.9617ZM5.52028 13.7755H1.44108V9.1897H5.52028V13.7755ZM5.52028 7.65667C5.52028 7.67 5.52028 7.68333 5.52028 7.70999V8.73645H1.44108V7.70999C1.44108 7.69666 1.44108 7.68333 1.44108 7.67C1.44108 7.65667 1.38776 6.07031 2.80081 5.69705C2.90746 5.67039 2.97411 5.57708 2.97411 5.47043V2.35105H3.98724V5.47043C3.98724 5.57708 4.0539 5.67039 4.16054 5.69705C5.5736 6.07031 5.53361 7.64334 5.52028 7.65667Z" fill="black"/>
</svg>
