<svg width="33" height="33" viewBox="0 0 33 33" fill="none" xmlns="http://www.w3.org/2000/svg">
<rect x="0.567853" y="0.743146" width="31.5338" height="31.5338" rx="15.7669" fill="white"/>
<rect x="0.567853" y="0.743146" width="31.5338" height="31.5338" rx="15.7669" stroke="#EB235C" stroke-width="0.808559"/>
<g clip-path="url(#clip0_259_11288)">
<path d="M13.909 11.2547C13.909 10.5836 14.4507 10.0419 15.1218 10.0419C15.7929 10.0419 16.3347 10.5836 16.3347 11.2547C16.3347 11.9258 15.7929 12.4675 15.1218 12.4675C14.4507 12.4675 13.909 11.9258 13.909 11.2547ZM26.0374 10.8504V15.7018C26.0374 17.9334 24.2262 19.7446 21.9946 19.7446H14.7175C12.4859 19.7446 10.6747 17.9334 10.6747 15.7018V10.8504C10.6747 8.61879 12.4859 6.80762 14.7175 6.80762H21.9946C24.2262 6.80762 26.0374 8.61879 26.0374 10.8504ZM12.2919 15.7018C12.2919 16.3244 12.5263 16.8903 12.9145 17.327L17.1513 13.0901C17.9437 12.2977 19.3263 12.2977 20.1187 13.0901L20.9596 13.931C21.1456 14.117 21.4609 14.117 21.6469 13.931L24.4202 11.1577V10.8504C24.4202 9.51629 23.3287 8.42473 21.9946 8.42473H14.7175C13.3834 8.42473 12.2919 9.51629 12.2919 10.8504V15.7018ZM24.4202 15.7018V13.4459L22.787 15.0792C21.9946 15.8716 20.6119 15.8716 19.8195 15.0792L18.9786 14.2383C18.7927 14.0523 18.4854 14.0523 18.2914 14.2383L14.4184 18.1113C14.5154 18.1274 14.6124 18.1274 14.7175 18.1274H21.9946C23.3287 18.1274 24.4202 17.0359 24.4202 15.7018ZM21.2588 21.394C20.8302 21.2727 20.3855 21.5315 20.2643 21.96L20.0298 22.8171C19.86 23.4397 19.4557 23.9652 18.8897 24.2806C18.3237 24.604 17.6688 24.6848 17.0462 24.5151L10.0279 22.5907C8.73421 22.2349 7.97416 20.9008 8.32993 19.6071L9.10614 16.7286C9.21934 16.3001 8.96869 15.8554 8.54015 15.7341C8.11162 15.6209 7.66691 15.8716 7.54563 16.3001L6.77749 19.1705C6.18725 21.3212 7.45668 23.5529 9.60745 24.1431L16.6257 26.0675C16.9815 26.1645 17.3454 26.213 17.7011 26.213C18.3965 26.213 19.0757 26.0351 19.6983 25.6794C20.6362 25.1457 21.3073 24.2806 21.5984 23.2375L21.8329 22.3805C21.9541 21.9519 21.6954 21.5072 21.2669 21.3859L21.2588 21.394Z" fill="#EB235C"/>
</g>
<defs>
<clipPath id="clip0_259_11288">
<rect width="19.4054" height="19.4054" fill="white" transform="translate(6.63184 6.80762)"/>
</clipPath>
</defs>
</svg>
