<svg width="34" height="33" viewBox="0 0 34 33" fill="none" xmlns="http://www.w3.org/2000/svg">
<rect x="1.12401" y="0.743146" width="31.5338" height="31.5338" rx="15.7669" fill="white"/>
<rect x="1.12401" y="0.743146" width="31.5338" height="31.5338" rx="15.7669" stroke="#EB235C" stroke-width="0.808559"/>
<g clip-path="url(#clip0_259_11294)">
<path d="M25.8827 14.1407L19.7498 8.00701C18.9907 7.25019 17.9626 6.8252 16.8907 6.8252C15.8188 6.8252 14.7907 7.25019 14.0316 8.00701L7.89872 14.1407C7.67267 14.3653 7.49345 14.6326 7.37145 14.927C7.24944 15.2213 7.18709 15.537 7.188 15.8557V23.7933C7.188 24.4366 7.44356 25.0536 7.89846 25.5085C8.35336 25.9634 8.97034 26.219 9.61367 26.219H24.1677C24.8111 26.219 25.428 25.9634 25.8829 25.5085C26.3378 25.0536 26.5934 24.4366 26.5934 23.7933V15.8557C26.5943 15.537 26.532 15.2213 26.41 14.927C26.288 14.6326 26.1087 14.3653 25.8827 14.1407ZM19.3164 24.6019H14.465V21.421C14.465 20.7777 14.7206 20.1607 15.1755 19.7058C15.6304 19.2509 16.2474 18.9953 16.8907 18.9953C17.534 18.9953 18.151 19.2509 18.6059 19.7058C19.0608 20.1607 19.3164 20.7777 19.3164 21.421V24.6019ZM24.9763 23.7933C24.9763 24.0077 24.8911 24.2134 24.7395 24.365C24.5878 24.5167 24.3822 24.6019 24.1677 24.6019H20.9335V21.421C20.9335 20.3488 20.5076 19.3205 19.7494 18.5623C18.9912 17.8041 17.9629 17.3782 16.8907 17.3782C15.8185 17.3782 14.7902 17.8041 14.032 18.5623C13.2738 19.3205 12.8479 20.3488 12.8479 21.421V24.6019H9.61367C9.39923 24.6019 9.19357 24.5167 9.04194 24.365C8.8903 24.2134 8.80512 24.0077 8.80512 23.7933V15.8557C8.80586 15.6414 8.89098 15.436 9.04202 15.284L15.1749 9.15273C15.6307 8.69907 16.2476 8.44439 16.8907 8.44439C17.5338 8.44439 18.1507 8.69907 18.6065 9.15273L24.7394 15.2865C24.8898 15.4379 24.9749 15.6422 24.9763 15.8557V23.7933Z" fill="#EB235C"/>
</g>
<defs>
<clipPath id="clip0_259_11294">
<rect width="19.4054" height="19.4054" fill="white" transform="translate(7.18799 6.80762)"/>
</clipPath>
</defs>
</svg>
