<svg width="33" height="33" viewBox="0 0 33 33" fill="none" xmlns="http://www.w3.org/2000/svg">
<rect x="0.470686" y="0.743146" width="31.5338" height="31.5338" rx="15.7669" fill="white"/>
<rect x="0.470686" y="0.743146" width="31.5338" height="31.5338" rx="15.7669" stroke="#EB235C" stroke-width="0.808559"/>
<g clip-path="url(#clip0_259_11306)">
<path d="M15.4289 16.5103C15.6434 16.5103 15.849 16.5955 16.0007 16.7471C16.1523 16.8988 16.2375 17.1044 16.2375 17.3189C16.2375 17.5333 16.1523 17.739 16.0007 17.8906C15.849 18.0422 15.6434 18.1274 15.4289 18.1274H13.0032C12.7888 18.1274 12.5831 18.0422 12.4315 17.8906C12.2799 17.739 12.1947 17.5333 12.1947 17.3189C12.1947 17.1044 12.2799 16.8988 12.4315 16.7471C12.5831 16.5955 12.7888 16.5103 13.0032 16.5103H15.4289ZM20.2803 14.0846C20.2803 13.8702 20.1951 13.6645 20.0434 13.5129C19.8918 13.3613 19.6862 13.2761 19.4717 13.2761H13.0032C12.7888 13.2761 12.5831 13.3613 12.4315 13.5129C12.2799 13.6645 12.1947 13.8702 12.1947 14.0846C12.1947 14.2991 12.2799 14.5047 12.4315 14.6564C12.5831 14.808 12.7888 14.8932 13.0032 14.8932H19.4717C19.6862 14.8932 19.8918 14.808 20.0434 14.6564C20.1951 14.5047 20.2803 14.2991 20.2803 14.0846ZM13.0032 11.659H19.4717C19.6862 11.659 19.8918 11.5738 20.0434 11.4221C20.1951 11.2705 20.2803 11.0649 20.2803 10.8504C20.2803 10.636 20.1951 10.4303 20.0434 10.2787C19.8918 10.127 19.6862 10.0419 19.4717 10.0419H13.0032C12.7888 10.0419 12.5831 10.127 12.4315 10.2787C12.2799 10.4303 12.1947 10.636 12.1947 10.8504C12.1947 11.0649 12.2799 11.2705 12.4315 11.4221C12.5831 11.5738 12.7888 11.659 13.0032 11.659ZM22.7059 22.5292V25.6284C22.706 25.7438 22.6718 25.8565 22.6078 25.9525C22.5437 26.0484 22.4527 26.1231 22.3461 26.1673C22.2395 26.2114 22.1223 26.223 22.0092 26.2005C21.896 26.178 21.7921 26.1224 21.7106 26.0408L21.0888 25.4198L20.467 26.0408C20.3855 26.1224 20.2816 26.178 20.1685 26.2005C20.0554 26.223 19.9381 26.2114 19.8315 26.1673C19.725 26.1231 19.6339 26.0484 19.5699 25.9525C19.5058 25.8565 19.4717 25.7438 19.4717 25.6284V22.5292C18.8551 22.1749 18.3729 21.6267 18.1003 20.9698C17.8276 20.313 17.7799 19.5844 17.9644 18.8976C18.1489 18.2107 18.5554 17.6042 19.1205 17.1724C19.6856 16.7407 20.3776 16.5079 21.0888 16.5103C21.3622 16.5137 21.6339 16.5523 21.8974 16.6251V10.8504C21.8974 10.2071 21.6418 9.5901 21.1869 9.1352C20.732 8.6803 20.115 8.42473 19.4717 8.42473H13.0032C12.3599 8.42473 11.7429 8.6803 11.288 9.1352C10.8331 9.5901 10.5776 10.2071 10.5776 10.8504V20.5531C10.5776 21.1964 10.8331 21.8134 11.288 22.2683C11.7429 22.7232 12.3599 22.9788 13.0032 22.9788H17.046C17.2605 22.9788 17.4661 23.064 17.6178 23.2156C17.7694 23.3672 17.8546 23.5729 17.8546 23.7873C17.8546 24.0018 17.7694 24.2074 17.6178 24.3591C17.4661 24.5107 17.2605 24.5959 17.046 24.5959H13.0032C11.9314 24.5946 10.9039 24.1683 10.146 23.4104C9.38808 22.6525 8.96173 21.6249 8.96045 20.5531V10.8504C8.96173 9.77859 9.38808 8.75103 10.146 7.99314C10.9039 7.23525 11.9314 6.8089 13.0032 6.80762H19.4717C20.5435 6.8089 21.5711 7.23525 22.329 7.99314C23.0869 8.75103 23.5132 9.77859 23.5145 10.8504V17.6277C23.8312 17.9834 24.0644 18.4054 24.1969 18.8629C24.3295 19.3203 24.358 19.8016 24.2805 20.2715C24.203 20.7415 24.0214 21.1881 23.7489 21.5787C23.4765 21.9694 23.1201 22.2941 22.7059 22.5292ZM22.7059 19.7446C22.7059 19.4247 22.6111 19.1121 22.4334 18.8461C22.2557 18.5802 22.0032 18.3729 21.7077 18.2505C21.4122 18.1281 21.087 18.0961 20.7733 18.1585C20.4597 18.2209 20.1715 18.3749 19.9454 18.6011C19.7192 18.8272 19.5652 19.1154 19.5028 19.4291C19.4404 19.7428 19.4724 20.0679 19.5948 20.3634C19.7172 20.6589 19.9245 20.9114 20.1904 21.0891C20.4563 21.2668 20.769 21.3617 21.0888 21.3617C21.5177 21.3617 21.929 21.1913 22.2323 20.888C22.5356 20.5848 22.7059 20.1734 22.7059 19.7446Z" fill="#EB235C"/>
</g>
<defs>
<clipPath id="clip0_259_11306">
<rect width="19.4054" height="19.4054" fill="white" transform="translate(6.53467 6.80762)"/>
</clipPath>
</defs>
</svg>
