<svg width="33" height="33" viewBox="0 0 33 33" fill="none" xmlns="http://www.w3.org/2000/svg">
<rect x="0.680158" y="0.743146" width="31.5338" height="31.5338" rx="15.7669" fill="white"/>
<rect x="0.680158" y="0.743146" width="31.5338" height="31.5338" rx="15.7669" stroke="#EB235C" stroke-width="0.808559"/>
<g clip-path="url(#clip0_259_11300)">
<path d="M10.6102 15.1217L9.55178 14.3843L8.49661 15.1217C8.09395 15.4241 7.50127 14.9867 7.67026 14.5128L8.04624 13.3356L7.06061 12.6491C6.62641 12.3669 6.85524 11.6295 7.37433 11.6465H8.66398L8.96396 10.4975C9.09979 9.90082 10.0102 9.90163 10.1461 10.4975L10.446 11.6465H11.7276C12.2451 11.6295 12.4731 12.3621 12.0405 12.6443L11.0533 13.334L11.4381 14.5039C11.6128 14.9802 11.0145 15.4241 10.6094 15.1209L10.6102 15.1217ZM26.1337 12.0694C26.0779 11.8228 25.858 11.6473 25.6049 11.6473H24.3233L24.0234 10.4983C23.8875 9.90163 22.9771 9.90163 22.8412 10.4983L22.5413 11.6473H21.2516C20.7325 11.6303 20.5045 12.3677 20.9379 12.6499L21.9235 13.3364L21.5476 14.5136C21.3778 14.9883 21.9712 15.4249 22.3739 15.1225L23.4291 14.3851L24.4875 15.1225C24.8934 15.4249 25.4909 14.981 25.3162 14.5056L24.9314 13.3356L25.9186 12.6459C26.103 12.5173 26.1887 12.2877 26.1337 12.0694ZM13.9568 9.41569L14.9424 10.1022L14.5665 11.2794C14.3975 11.754 14.9901 12.1907 15.3928 11.8883L16.448 11.1509L17.5064 11.8883C17.9123 12.1907 18.5098 11.7468 18.3352 11.2713L17.9503 10.1013L18.9375 9.41164C19.3701 9.12946 19.1421 8.3969 18.6246 8.41388H17.343L17.0431 7.26492C16.9072 6.6682 15.9968 6.6682 15.861 7.26492L15.561 8.41388H14.2713C13.7522 8.3969 13.5242 9.13431 13.9576 9.41649L13.9568 9.41569ZM16.4472 20.5536C13.8541 20.5536 11.5473 22.2419 10.8366 24.6586C10.6474 25.3014 11.0153 25.975 11.6581 26.1642C12.3001 26.3518 12.9744 25.9855 13.1636 25.3419C13.5727 23.9503 14.923 22.9784 16.4472 22.9784C17.9713 22.9784 19.3216 23.9503 19.7307 25.3419C19.886 25.8707 20.3695 26.2127 20.8934 26.2127C21.0066 26.2127 21.1214 26.1965 21.2355 26.1634C21.8783 25.9742 22.2461 25.3006 22.0569 24.6578C21.3462 22.241 19.0394 20.5528 16.4464 20.5528L16.4472 20.5536ZM16.4472 19.745C18.2333 19.745 19.6814 18.2969 19.6814 16.5108C19.6814 14.7247 18.2333 13.2766 16.4472 13.2766C14.6611 13.2766 13.2129 14.7247 13.2129 16.5108C13.2129 18.2969 14.6611 19.745 16.4472 19.745Z" fill="#EB235C"/>
</g>
<defs>
<clipPath id="clip0_259_11300">
<rect width="19.4054" height="19.4054" fill="white" transform="translate(6.74463 6.80762)"/>
</clipPath>
</defs>
</svg>
