<svg width="33" height="33" viewBox="0 0 33 33" fill="none" xmlns="http://www.w3.org/2000/svg">
<rect x="1.01121" y="0.743146" width="31.5338" height="31.5338" rx="15.7669" fill="white"/>
<rect x="1.01121" y="0.743146" width="31.5338" height="31.5338" rx="15.7669" stroke="#EB235C" stroke-width="0.808559"/>
<g clip-path="url(#clip0_259_11282)">
<path d="M15.6128 15.4818C15.5085 15.747 15.4155 16.0098 15.3314 16.2718C15.164 16.7901 15.5602 17.3197 16.1044 17.3197C16.4601 17.3197 16.7674 17.0852 16.8765 16.7464C16.9461 16.5297 17.0221 16.3122 17.107 16.0963C18.0158 13.6561 20.3145 10.7251 23.2423 9.10473C21.5128 11.0057 19.5108 14.0491 19.0152 15.7681C20.1181 15.4673 21.3649 14.9239 22.5728 13.948C24.9411 12.0358 26.0884 9.28181 26.4555 7.8361C26.5889 7.30973 26.1831 6.81004 25.6397 6.80923C24.2085 6.80843 21.3382 7.09304 19.0152 8.96889C16.4092 11.0736 15.7688 14.1995 15.6128 15.4834V15.4818ZM9.50087 8.02046V10.8504H9.09659C7.97997 10.8504 7.0752 9.94563 7.0752 8.82901V8.02046C7.0752 7.35097 7.61855 6.80762 8.28803 6.80762C8.95752 6.80762 9.50087 7.35097 9.50087 8.02046ZM26.4741 23.9232C26.4628 24.0493 26.4499 24.1455 26.4361 24.1916C26.0884 25.3608 25.005 26.213 23.7234 26.213H16.1634C16.5515 25.6341 16.7779 24.9387 16.7779 24.1916C16.7779 23.075 17.6827 22.1702 18.7993 22.1702H24.8619C25.8079 22.1702 26.559 22.9812 26.4733 23.9232H26.4741ZM15.1608 24.1957C15.1584 25.3923 14.1161 26.3456 12.8887 26.1985C11.8546 26.0739 11.118 25.119 11.118 24.0768V8.02046C11.118 7.58707 11.0193 7.17551 10.8447 6.80762H19.337C18.8834 7.06959 18.4338 7.35825 17.9988 7.70916C15.0638 10.0799 14.2544 13.513 14.0345 15.08C13.9471 15.3128 13.8663 15.5441 13.7911 15.7761C13.5566 16.5071 13.6868 17.314 14.1404 17.9366C14.5964 18.5624 15.3314 18.936 16.1052 18.936C17.0108 18.936 17.8226 18.4347 18.2414 17.6544L19.4413 17.327C20.8288 16.9486 22.1023 16.3114 23.2472 15.4543V20.5539H18.8009C16.7892 20.5539 15.1648 22.1848 15.1616 24.1965L15.1608 24.1957Z" fill="#EB235C"/>
</g>
<defs>
<clipPath id="clip0_259_11282">
<rect width="19.4054" height="19.4054" fill="white" transform="translate(7.0752 6.80762)"/>
</clipPath>
</defs>
</svg>
