<svg width="30" height="30" viewBox="0 0 30 30" fill="none" xmlns="http://www.w3.org/2000/svg">
<g clip-path="url(#clip0_259_11313)">
<path d="M8.8496 0.0625H5.08391C3.75228 0.0625 2.47519 0.591488 1.53358 1.53309C0.591977 2.4747 0.0629883 3.75179 0.0629883 5.08342L0.0629883 8.84911C0.0629883 10.1807 0.591977 11.4578 1.53358 12.3994C2.47519 13.341 3.75228 13.87 5.08391 13.87H8.8496C10.1812 13.87 11.4583 13.341 12.3999 12.3994C13.3415 11.4578 13.8705 10.1807 13.8705 8.84911V5.08342C13.8705 3.75179 13.3415 2.4747 12.3999 1.53309C11.4583 0.591488 10.1812 0.0625 8.8496 0.0625ZM11.3601 8.84911C11.3601 9.51493 11.0956 10.1535 10.6248 10.6243C10.154 11.0951 9.51541 11.3596 8.8496 11.3596H5.08391C4.41809 11.3596 3.77955 11.0951 3.30875 10.6243C2.83794 10.1535 2.57345 9.51493 2.57345 8.84911V5.08342C2.57345 4.4176 2.83794 3.77906 3.30875 3.30826C3.77955 2.83745 4.41809 2.57296 5.08391 2.57296H8.8496C9.51541 2.57296 10.154 2.83745 10.6248 3.30826C11.0956 3.77906 11.3601 4.4176 11.3601 5.08342V8.84911Z" fill="white"/>
<path d="M24.9165 0.0625H21.1508C19.8192 0.0625 18.5421 0.591488 17.6005 1.53309C16.6589 2.4747 16.1299 3.75179 16.1299 5.08342V8.84911C16.1299 10.1807 16.6589 11.4578 17.6005 12.3994C18.5421 13.341 19.8192 13.87 21.1508 13.87H24.9165C26.2481 13.87 27.5252 13.341 28.4668 12.3994C29.4084 11.4578 29.9374 10.1807 29.9374 8.84911V5.08342C29.9374 3.75179 29.4084 2.4747 28.4668 1.53309C27.5252 0.591488 26.2481 0.0625 24.9165 0.0625ZM27.427 8.84911C27.427 9.51493 27.1625 10.1535 26.6917 10.6243C26.2209 11.0951 25.5823 11.3596 24.9165 11.3596H21.1508C20.485 11.3596 19.8464 11.0951 19.3756 10.6243C18.9048 10.1535 18.6403 9.51493 18.6403 8.84911V5.08342C18.6403 4.4176 18.9048 3.77906 19.3756 3.30826C19.8464 2.83745 20.485 2.57296 21.1508 2.57296H24.9165C25.5823 2.57296 26.2209 2.83745 26.6917 3.30826C27.1625 3.77906 27.427 4.4176 27.427 5.08342V8.84911Z" fill="white"/>
<path d="M8.8496 16.1299H5.08391C3.75228 16.1299 2.47519 16.6589 1.53358 17.6005C0.591977 18.5421 0.0629883 19.8192 0.0629883 21.1508L0.0629883 24.9165C0.0629883 26.2481 0.591977 27.5252 1.53358 28.4668C2.47519 29.4084 3.75228 29.9374 5.08391 29.9374H8.8496C10.1812 29.9374 11.4583 29.4084 12.3999 28.4668C13.3415 27.5252 13.8705 26.2481 13.8705 24.9165V21.1508C13.8705 19.8192 13.3415 18.5421 12.3999 17.6005C11.4583 16.6589 10.1812 16.1299 8.8496 16.1299ZM11.3601 24.9165C11.3601 25.5823 11.0956 26.2209 10.6248 26.6917C10.154 27.1625 9.51541 27.427 8.8496 27.427H5.08391C4.41809 27.427 3.77955 27.1625 3.30875 26.6917C2.83794 26.2209 2.57345 25.5823 2.57345 24.9165V21.1508C2.57345 20.485 2.83794 19.8464 3.30875 19.3756C3.77955 18.9048 4.41809 18.6403 5.08391 18.6403H8.8496C9.51541 18.6403 10.154 18.9048 10.6248 19.3756C11.0956 19.8464 11.3601 20.485 11.3601 21.1508V24.9165Z" fill="white"/>
<path d="M24.9165 16.1299H21.1508C19.8192 16.1299 18.5421 16.6589 17.6005 17.6005C16.6589 18.5421 16.1299 19.8192 16.1299 21.1508V24.9165C16.1299 26.2481 16.6589 27.5252 17.6005 28.4668C18.5421 29.4084 19.8192 29.9374 21.1508 29.9374H24.9165C26.2481 29.9374 27.5252 29.4084 28.4668 28.4668C29.4084 27.5252 29.9374 26.2481 29.9374 24.9165V21.1508C29.9374 19.8192 29.4084 18.5421 28.4668 17.6005C27.5252 16.6589 26.2481 16.1299 24.9165 16.1299ZM27.427 24.9165C27.427 25.5823 27.1625 26.2209 26.6917 26.6917C26.2209 27.1625 25.5823 27.427 24.9165 27.427H21.1508C20.485 27.427 19.8464 27.1625 19.3756 26.6917C18.9048 26.2209 18.6403 25.5823 18.6403 24.9165V21.1508C18.6403 20.485 18.9048 19.8464 19.3756 19.3756C19.8464 18.9048 20.485 18.6403 21.1508 18.6403H24.9165C25.5823 18.6403 26.2209 18.9048 26.6917 19.3756C27.1625 19.8464 27.427 20.485 27.427 21.1508V24.9165Z" fill="white"/>
</g>
<defs>
<clipPath id="clip0_259_11313">
<rect width="29.8745" height="29.8745" fill="white" transform="translate(0.0629883 0.0625)"/>
</clipPath>
</defs>
</svg>
