<svg width="30" height="30" viewBox="0 0 30 30" fill="none" xmlns="http://www.w3.org/2000/svg">
<rect x="0.67022" y="0.340142" width="28.449" height="28.449" rx="14.2245" fill="white"/>
<rect x="0.67022" y="0.340142" width="28.449" height="28.449" rx="14.2245" stroke="black" stroke-width="0.65956"/>
<path d="M9.06779 24.6691C8.39946 24.6691 7.73902 24.5007 7.13778 24.1692C6.19974 23.6522 5.51825 22.801 5.22092 21.7721C4.92359 20.7433 5.04331 19.6593 5.56035 18.7212L10.119 10.4473C10.636 9.50794 11.4872 8.82777 12.516 8.52912C13.5448 8.23048 14.6289 8.35151 15.5669 8.86855C16.505 9.38559 17.1865 10.2368 17.4838 11.2656C17.7824 12.2957 17.6614 13.3798 17.1444 14.3178L12.5871 22.5918C12.07 23.5298 11.2188 24.2113 10.19 24.5086C9.81901 24.6165 9.44274 24.6691 9.06779 24.6691ZM13.6369 9.00274C12.4437 9.00274 11.2859 9.63424 10.6715 10.7512L6.11291 19.0251C5.21434 20.6578 5.81032 22.7168 7.44169 23.6153C7.95741 23.8995 8.51655 24.0337 9.06648 24.0337C10.2597 24.0337 11.4175 23.4022 12.0319 22.2852L16.5918 14.0126C17.4904 12.3799 16.8944 10.321 15.263 9.42243C14.7473 9.13825 14.1882 9.00274 13.6369 9.00274Z" fill="black"/>
<path d="M7.95065 23.0096C7.89934 23.0096 7.84671 22.9964 7.79803 22.9701C6.5232 22.2676 6.05615 20.6586 6.7587 19.3824L7.67305 17.7221C7.75725 17.5695 7.94933 17.5143 8.10194 17.5985C8.25455 17.6827 8.30981 17.8747 8.22561 18.0273L7.31125 19.6877C6.77711 20.6586 7.13102 21.8821 8.10194 22.4176C8.25455 22.5018 8.30981 22.6938 8.22561 22.8465C8.17035 22.9504 8.06247 23.0096 7.95065 23.0096Z" fill="black"/>
<path d="M14.5893 18.618C14.538 18.618 14.4853 18.6048 14.4367 18.5785L7.96382 15.0119C7.81121 14.9277 7.75596 14.7356 7.84015 14.583C7.92435 14.4304 8.11643 14.3751 8.26905 14.4593L14.7419 18.0259C14.8945 18.1101 14.9498 18.3022 14.8656 18.4548C14.8077 18.5588 14.6998 18.618 14.5893 18.618Z" fill="black"/>
<path d="M20.7152 21.2065C20.1968 21.2065 19.6798 21.1052 19.1865 20.9012C18.1958 20.4934 17.4235 19.7225 17.0117 18.7344L15.7698 15.7506C15.7027 15.5901 15.779 15.4046 15.9395 15.3375C16.1 15.2704 16.2855 15.3467 16.3526 15.5072L17.5946 18.491C18.3116 20.2119 20.2929 21.0302 22.0137 20.3132C23.7345 19.5975 24.5515 17.6161 23.8359 15.8953L22.0216 11.534L20.2074 7.17408C19.6811 5.90846 18.455 5.09146 17.0854 5.09146C16.6394 5.09146 16.2039 5.1796 15.7882 5.35195C14.4594 5.90451 13.6253 7.23986 13.7122 8.6752C13.7227 8.84887 13.5898 8.99885 13.4162 9.00937C13.2425 9.0199 13.0925 8.88702 13.082 8.71336C12.9794 7.00963 13.97 5.42431 15.5461 4.76913C16.0382 4.56389 16.5565 4.45996 17.0854 4.45996C17.8682 4.45996 18.6286 4.68756 19.2864 5.11777C19.96 5.5585 20.4797 6.18605 20.7902 6.93201L22.6044 11.292L24.4187 15.6532C24.8305 16.6426 24.8318 17.7332 24.4239 18.7226C24.0161 19.7119 23.2451 20.4855 22.2571 20.8973C21.7598 21.1039 21.2375 21.2065 20.7152 21.2065Z" fill="black"/>
<path d="M20.7191 19.8353C19.6837 19.8353 18.6996 19.2222 18.2773 18.2092L17.5498 16.4594C17.4827 16.2989 17.559 16.1134 17.7195 16.0463C17.88 15.9792 18.0655 16.0555 18.1326 16.2161L18.8601 17.9658C19.2864 18.9894 20.4638 19.4748 21.4874 19.0486C21.6479 18.9815 21.8334 19.0578 21.9005 19.2183C21.9676 19.3788 21.8913 19.5643 21.7308 19.6314C21.3993 19.7695 21.0559 19.8353 20.7191 19.8353Z" fill="black"/>
<path d="M17.1323 13.8853C17.0087 13.8853 16.8916 13.8116 16.8403 13.6906C16.7732 13.5301 16.8495 13.3446 17.01 13.2775L22.1909 11.1225C22.3514 11.0554 22.5369 11.1317 22.604 11.2922C22.6711 11.4527 22.5948 11.6382 22.4343 11.7053L17.2534 13.8603C17.2139 13.8774 17.1731 13.8853 17.1323 13.8853Z" fill="black"/>
</svg>
