<svg width="30" height="30" viewBox="0 0 30 30" fill="none" xmlns="http://www.w3.org/2000/svg">
<rect x="0.67022" y="0.497857" width="28.449" height="28.449" rx="14.2245" fill="white"/>
<rect x="0.67022" y="0.497857" width="28.449" height="28.449" rx="14.2245" stroke="black" stroke-width="0.65956"/>
<g clip-path="url(#clip0_52_3691)">
<path d="M14.8948 6.27994C14.6359 6.27994 14.4258 6.06982 14.4258 5.81092V3.93484C14.4258 3.67594 14.6359 3.46582 14.8948 3.46582C15.1537 3.46582 15.3638 3.67594 15.3638 3.93484V5.81092C15.3638 6.06982 15.1537 6.27994 14.8948 6.27994Z" fill="black"/>
<path d="M21.1963 8.8897C21.0762 8.8897 20.9562 8.84374 20.8642 8.75275C20.6813 8.56983 20.6813 8.27247 20.8642 8.08956L22.1906 6.76317C22.3735 6.58025 22.6709 6.58025 22.8538 6.76317C23.0367 6.94608 23.0367 7.24344 22.8538 7.42636L21.5274 8.75275C21.4364 8.84374 21.3164 8.8897 21.1963 8.8897Z" fill="black"/>
<path d="M25.682 15.191H23.8059C23.547 15.191 23.3369 14.9808 23.3369 14.722C23.3369 14.4631 23.547 14.2529 23.8059 14.2529H25.682C25.9409 14.2529 26.151 14.4631 26.151 14.722C26.151 14.9808 25.9409 15.191 25.682 15.191Z" fill="black"/>
<path d="M22.5227 22.8204C22.4026 22.8204 22.2826 22.7744 22.1906 22.6834L20.8642 21.357C20.6813 21.1741 20.6813 20.8767 20.8642 20.6938C21.0472 20.5109 21.3445 20.5109 21.5274 20.6938L22.8538 22.0202C23.0367 22.2031 23.0367 22.5005 22.8538 22.6834C22.7628 22.7744 22.6428 22.8204 22.5227 22.8204Z" fill="black"/>
<path d="M14.8948 25.9787C14.6359 25.9787 14.4258 25.7686 14.4258 25.5097V23.6336C14.4258 23.3747 14.6359 23.1646 14.8948 23.1646C15.1537 23.1646 15.3638 23.3747 15.3638 23.6336V25.5097C15.3638 25.7686 15.1537 25.9787 14.8948 25.9787Z" fill="black"/>
<path d="M7.26662 22.8204C7.14655 22.8204 7.02648 22.7744 6.93455 22.6834C6.75163 22.5005 6.75163 22.2031 6.93455 22.0202L8.26094 20.6938C8.44386 20.5109 8.74122 20.5109 8.92414 20.6938C9.10706 20.8767 9.10706 21.1741 8.92414 21.357L7.59775 22.6834C7.50676 22.7744 7.38669 22.8204 7.26662 22.8204Z" fill="black"/>
<path d="M5.98329 15.191H4.1072C3.8483 15.191 3.63818 14.9808 3.63818 14.722C3.63818 14.4631 3.8483 14.2529 4.1072 14.2529H5.98329C6.24219 14.2529 6.45231 14.4631 6.45231 14.722C6.45231 14.9808 6.24219 15.191 5.98329 15.191Z" fill="black"/>
<path d="M8.59305 8.8897C8.47298 8.8897 8.35291 8.84374 8.26098 8.75275L6.93553 7.42636C6.75261 7.24344 6.75261 6.94608 6.93553 6.76317C7.11845 6.58025 7.41581 6.58025 7.59872 6.76317L8.92511 8.08956C9.10803 8.27247 9.10803 8.56983 8.92511 8.75275C8.83319 8.84374 8.71312 8.8897 8.59305 8.8897Z" fill="black"/>
<path d="M13.5558 22.2266C13.5005 22.2266 13.4461 22.2172 13.3917 22.1975C13.1862 22.1206 13.0615 21.9123 13.0906 21.6966L13.8907 15.6603H10.6732C10.4959 15.6603 10.3337 15.5599 10.2539 15.4014C10.1742 15.2428 10.1911 15.0524 10.298 14.9098L15.9263 7.4055C16.0566 7.23102 16.2883 7.16911 16.4863 7.25541C16.6851 7.34078 16.8005 7.54996 16.7649 7.76383L15.9169 12.8461H19.1156C19.2882 12.8461 19.4467 12.9409 19.5283 13.0928C19.6099 13.2448 19.6015 13.4287 19.5077 13.5741L13.9479 22.0164C13.8588 22.1506 13.7097 22.2266 13.5558 22.2266ZM11.6113 14.7222H14.4254C14.5614 14.7222 14.689 14.7813 14.7781 14.8826C14.8672 14.983 14.9085 15.119 14.8907 15.2532L14.2894 19.7914L18.2451 13.7842H15.3634C15.2255 13.7842 15.0952 13.7241 15.0051 13.6181C14.916 13.5131 14.8775 13.3733 14.901 13.2382L15.5229 9.50671L11.6113 14.7222Z" fill="black"/>
</g>
<defs>
<clipPath id="clip0_52_3691">
<rect width="22.513" height="22.513" fill="white" transform="translate(3.63818 3.46582)"/>
</clipPath>
</defs>
</svg>
