<svg width="30" height="30" viewBox="0 0 30 30" fill="none" xmlns="http://www.w3.org/2000/svg">
<rect x="0.67022" y="1.18194" width="28.449" height="28.449" rx="14.2245" fill="white"/>
<rect x="0.67022" y="1.18194" width="28.449" height="28.449" rx="14.2245" stroke="black" stroke-width="0.65956"/>
<g clip-path="url(#clip0_52_3810)">
<path d="M19.4961 24.0889H19.125C18.8529 24.0889 18.6055 24.3115 18.6055 24.6084C18.6055 24.9053 18.8281 25.1279 19.125 25.1279H19.4961C19.7682 25.1279 20.0156 24.9053 20.0156 24.6084C20.0156 24.3115 19.7682 24.0889 19.4961 24.0889Z" fill="black"/>
<path d="M25.5076 24.0889H24.9881L16.7251 14.292C15.7602 13.3271 14.1769 13.3271 13.1873 14.292L4.92431 24.0889H4.33057C4.05843 24.0889 3.81104 24.3115 3.81104 24.6084C3.81104 24.9053 4.03369 25.1279 4.33057 25.1279H16.9477C17.2199 25.1279 17.4673 24.9053 17.4673 24.6084C17.4673 24.3115 17.2446 24.0889 16.9477 24.0889H6.26025L13.9295 15.0094C14.4985 14.4652 15.4139 14.4652 15.9829 15.0094L23.6522 24.0889H21.4256C21.1535 24.0889 20.9061 24.3115 20.9061 24.6084C20.9061 24.9053 21.1287 25.1279 21.4256 25.1279H25.5324C25.8045 25.1279 26.0519 24.9053 26.0519 24.6084C26.0519 24.3115 25.7798 24.0889 25.5076 24.0889Z" fill="black"/>
<path d="M12.272 19.0166C11.9998 19.0166 11.7524 19.2393 11.7524 19.5361C11.7524 19.8083 11.9751 20.0557 12.272 20.0557C12.5441 20.0557 12.7915 19.833 12.7915 19.5361C12.7915 19.2393 12.5688 19.0166 12.272 19.0166Z" fill="black"/>
<path d="M15.9087 20.0312C16.1808 20.0312 16.4282 19.8086 16.4282 19.5117C16.4282 19.2396 16.2056 18.9922 15.9087 18.9922C15.6366 18.9922 15.3892 19.2148 15.3892 19.5117C15.3892 19.8086 15.6118 20.0312 15.9087 20.0312Z" fill="black"/>
<path d="M14.103 20.0312C14.3752 20.0312 14.6226 19.8086 14.6226 19.5117C14.6226 19.2396 14.3999 18.9922 14.103 18.9922C13.8309 18.9922 13.5835 19.2148 13.5835 19.5117C13.5835 19.8086 13.8062 20.0312 14.103 20.0312Z" fill="black"/>
<path d="M14.9932 18.498C15.2653 18.498 15.5127 18.2754 15.5127 17.9785C15.5127 17.7064 15.29 17.459 14.9932 17.459C14.721 17.459 14.4736 17.6816 14.4736 17.9785C14.4736 18.2754 14.721 18.498 14.9932 18.498Z" fill="black"/>
<path d="M16.7993 18.498C17.0715 18.498 17.3188 18.2754 17.3188 17.9785C17.3188 17.7064 17.0962 17.459 16.7993 17.459C16.5272 17.459 16.2798 17.6816 16.2798 17.9785C16.2798 18.2754 16.5272 18.498 16.7993 18.498Z" fill="black"/>
<path d="M13.979 17.4834C13.979 17.2113 13.7563 16.9639 13.4595 16.9639C13.1626 16.9639 12.9399 17.1865 12.9399 17.4834C12.9399 17.7555 13.1626 18.0029 13.4595 18.0029C13.7316 17.9782 13.979 17.7555 13.979 17.4834Z" fill="black"/>
<path d="M14.5483 16.7168C14.8205 16.7168 15.0679 16.4941 15.0679 16.1973C15.0679 15.9251 14.8452 15.6777 14.5483 15.6777C14.2762 15.6777 14.0288 15.9004 14.0288 16.1973C14.0288 16.4694 14.2515 16.7168 14.5483 16.7168Z" fill="black"/>
<path d="M18.9023 19.7842C18.9023 19.512 18.6797 19.2646 18.3828 19.2646C18.1107 19.2646 17.8633 19.4873 17.8633 19.7842C17.8633 20.0563 18.0859 20.3037 18.3828 20.3037C18.6549 20.3037 18.9023 20.0563 18.9023 19.7842Z" fill="black"/>
<path d="M10.2187 21.3184C9.94661 21.3184 9.69922 21.541 9.69922 21.8379C9.69922 22.11 9.92187 22.3574 10.2187 22.3574C10.4909 22.3574 10.7383 22.1348 10.7383 21.8379C10.7383 21.541 10.5156 21.3184 10.2187 21.3184Z" fill="black"/>
<path d="M15.958 11.3232C16.2301 11.3232 16.4775 11.1006 16.4775 10.8037C16.4775 10.5068 16.2549 10.2842 15.958 10.2842C15.6859 10.2842 15.4385 10.5068 15.4385 10.8037C15.4385 11.1006 15.6859 11.3232 15.958 11.3232Z" fill="black"/>
<path d="M14.9438 7.29101C15.216 7.29101 15.4634 7.06836 15.4634 6.77148C15.4634 6.49935 15.2407 6.25195 14.9438 6.25195C14.6717 6.25195 14.4243 6.47461 14.4243 6.77148C14.4243 7.06836 14.6717 7.29101 14.9438 7.29101Z" fill="black"/>
<path d="M14.2759 10.7549C14.548 10.7549 14.7954 10.5322 14.7954 10.2354C14.7954 9.96322 14.5728 9.71582 14.2759 9.71582C13.979 9.71582 13.7563 9.93848 13.7563 10.2354C13.7563 10.5322 13.979 10.7549 14.2759 10.7549Z" fill="black"/>
<path d="M14.2759 12.5605C14.548 12.5605 14.7954 12.3379 14.7954 12.041C14.7954 11.7689 14.5728 11.5215 14.2759 11.5215C13.979 11.5215 13.7563 11.7441 13.7563 12.041C13.7563 12.3132 13.979 12.5605 14.2759 12.5605Z" fill="black"/>
</g>
<defs>
<clipPath id="clip0_52_3810">
<rect width="22.513" height="22.513" fill="white" transform="translate(3.63818 4.1499)"/>
</clipPath>
</defs>
</svg>
